<?xml version="1.0" encoding="UTF-8" standalone="no"?>
<!-- Created with Inkscape (http://www.inkscape.org/) -->
<svg
   xmlns:svg="http://www.w3.org/2000/svg"
   xmlns="http://www.w3.org/2000/svg"
   version="1.0"
   width="590.5"
   height="590.5"
   id="stp1">
  <defs
     id="defs" />
  <g
     id="links">
    <path
       d="M 285,70.25 L 180,170.25"
       style="fill:none;fill-rule:evenodd;stroke:#000000;stroke-width:1px;stroke-linecap:butt;stroke-linejoin:miter;stroke-opacity:1"
       id="link_a_3" />
    <path
       d="M 180,170.25 L 70,275.25"
       style="fill:none;fill-rule:evenodd;stroke:#000000;stroke-width:1px;stroke-linecap:butt;stroke-linejoin:miter;stroke-opacity:1"
       id="link_a_24" />
    <path
       d="M 315,70.25 L 420,180.25"
       style="fill:none;fill-rule:evenodd;stroke:#000000;stroke-width:1px;stroke-linecap:butt;stroke-linejoin:miter;stroke-opacity:1"
       id="link_b_3" />
    <path
       d="M 560,280.25 L 420,180.25"
       style="fill:none;fill-rule:evenodd;stroke:#000000;stroke-width:1px;stroke-linecap:butt;stroke-linejoin:miter;stroke-opacity:1"
       id="link_b_12" />
    <path
       d="M 335,280.25 L 420,180.25"
       style="fill:none;fill-rule:evenodd;stroke:#000000;stroke-width:1px;stroke-linecap:butt;stroke-linejoin:miter;stroke-opacity:1"
       id="link_b_92" />
    <path
       d="M 55,500.25 L 50,400.25"
       style="fill:none;fill-rule:evenodd;stroke:#000000;stroke-width:1px;stroke-linecap:butt;stroke-linejoin:miter;stroke-opacity:1"
       id="link_c_4" />
    <path
       d="M 70,315.25 L 50,400.25"
       style="fill:none;fill-rule:evenodd;stroke:#000000;stroke-width:1px;stroke-linecap:butt;stroke-linejoin:miter;stroke-opacity:1"
       id="link_c_24" />
    <path
       d="M 90,295.25 L 180,300.25"
       style="fill:none;fill-rule:evenodd;stroke:#000000;stroke-width:1px;stroke-linecap:butt;stroke-linejoin:miter;stroke-opacity:1"
       id="link_d_24" />
    <path
       d="M 315,300.25 L 180,300.25"
       style="fill:none;fill-rule:evenodd;stroke:#000000;stroke-width:1px;stroke-linecap:butt;stroke-linejoin:miter;stroke-opacity:1"
       id="link_d_92" />
    <path
       d="M 305,500.25 L 385,410.25"
       style="fill:none;fill-rule:evenodd;stroke:#000000;stroke-width:1px;stroke-linecap:butt;stroke-linejoin:miter;stroke-opacity:1"
       id="link_e_5" />
    <path
       d="M 475,500.25 L 385,410.25"
       style="fill:none;fill-rule:evenodd;stroke:#000000;stroke-width:1px;stroke-linecap:butt;stroke-linejoin:miter;stroke-opacity:1"
       id="link_e_7" />
    <path
       d="M 335,320.25 L 385,410.25"
       style="fill:none;fill-rule:evenodd;stroke:#000000;stroke-width:1px;stroke-linecap:butt;stroke-linejoin:miter;stroke-opacity:1"
       id="link_e_92" />
    <path
       d="M 70,520.25 L 160,510.25"
       style="fill:none;fill-rule:evenodd;stroke:#000000;stroke-width:1px;stroke-linecap:butt;stroke-linejoin:miter;stroke-opacity:1"
       id="link_f_4" />
    <path
       d="M 290,520.25 L 160,510.25"
       style="fill:none;fill-rule:evenodd;stroke:#000000;stroke-width:1px;stroke-linecap:butt;stroke-linejoin:miter;stroke-opacity:1"
       id="link_f_5" />
  </g>
  <g
     id="bridges">
    <rect
       width="30"
       height="40"
       x="285"
       y="50.25"
       style="fill:#ffffff;fill-opacity:1;fill-rule:evenodd;stroke:#000000;stroke-width:1;stroke-linecap:butt;stroke-linejoin:miter;stroke-miterlimit:4;stroke-dasharray:none;stroke-opacity:1"
       id="bridge_3" />
    <rect
       width="40"
       height="40"
       x="50"
       y="275.25"
       style="fill:#ffffff;fill-opacity:1;stroke:#000000;stroke-width:1;stroke-miterlimit:4;stroke-dasharray:none;stroke-opacity:1"
       id="bridge_24" />
    <rect
       width="40"
       height="40"
       x="315"
       y="280.25"
       style="fill:#ffffff;fill-opacity:1;stroke:#000000;stroke-width:1;stroke-miterlimit:4;stroke-dasharray:none;stroke-opacity:1"
       id="bridge_92" />
    <rect
       width="40"
       height="40"
       x="540"
       y="280.25"
       style="fill:#ffffff;fill-opacity:1;stroke:#000000;stroke-width:1;stroke-miterlimit:4;stroke-dasharray:none;stroke-opacity:1"
       id="bridge_12" />
    <rect
       width="30"
       height="40"
       x="40"
       y="500.25"
       style="fill:#ffffff;fill-opacity:1;fill-rule:evenodd;stroke:#000000;stroke-width:1;stroke-linecap:butt;stroke-linejoin:miter;stroke-miterlimit:4;stroke-dasharray:none;stroke-opacity:1"
       id="bridge_4" />
    <rect
       width="30"
       height="40"
       x="290"
       y="500.25"
       style="fill:#ffffff;fill-opacity:1;fill-rule:evenodd;stroke:#000000;stroke-width:1;stroke-linecap:butt;stroke-linejoin:miter;stroke-miterlimit:4;stroke-dasharray:none;stroke-opacity:1"
       id="bridge_5" />
    <rect
       width="30"
       height="40"
       x="460"
       y="500.25"
       style="fill:#ffffff;fill-opacity:1;fill-rule:evenodd;stroke:#000000;stroke-width:1;stroke-linecap:butt;stroke-linejoin:miter;stroke-miterlimit:4;stroke-dasharray:none;stroke-opacity:1"
       id="bridge_7" />
  </g>
  <g
     id="bridge_labels">
    <path
       d="M 299.47363,62.0127 C 298.98144,62.01271 298.48925,62.07196 297.99707,62.19043 C 297.50488,62.30894 297.02181,62.46389 296.54785,62.65527 C 296.11035,62.83758 295.72981,63.02899 295.40625,63.22949 C 295.08268,63.43003 294.79329,63.61688 294.53809,63.79004 L 294.37402,63.79004 L 294.37402,60.90527 C 294.96647,60.58628 295.77083,60.2969 296.78711,60.03711 C 297.80338,59.77736 298.7718,59.64748 299.69238,59.64746 C 300.61295,59.64748 301.41731,59.74091 302.10547,59.92773 C 302.79361,60.1146 303.41568,60.40399 303.97168,60.7959 C 304.57323,61.23342 305.02668,61.76206 305.33203,62.38184 C 305.63736,63.00165 305.79003,63.72625 305.79004,64.55566 C 305.79003,65.67677 305.42089,66.66115 304.68262,67.50879 C 303.94432,68.35646 303.06021,68.89422 302.03027,69.12207 L 302.03027,69.31348 C 302.45865,69.39552 302.91666,69.53679 303.4043,69.7373 C 303.89192,69.93784 304.34537,70.23406 304.76465,70.62598 C 305.18391,71.01791 305.5257,71.52149 305.79004,72.13672 C 306.05435,72.75196 306.18651,73.50163 306.18652,74.38574 C 306.18651,75.30632 306.02928,76.1517 305.71484,76.92188 C 305.40038,77.69206 304.95604,78.37337 304.38184,78.96582 C 303.78938,79.58561 303.07388,80.05501 302.23535,80.37402 C 301.3968,80.69303 300.44433,80.85254 299.37793,80.85254 C 298.35709,80.85254 297.34537,80.72949 296.34277,80.4834 C 295.34017,80.2373 294.49707,79.94108 293.81348,79.59473 L 293.81348,76.70996 L 294.00488,76.70996 C 294.5791,77.12924 295.34928,77.53028 296.31543,77.91309 C 297.28157,78.2959 298.24772,78.48731 299.21387,78.4873 C 299.76985,78.48731 300.32812,78.39844 300.88867,78.2207 C 301.44921,78.04297 301.91633,77.75358 302.29004,77.35254 C 302.65461,76.9515 302.93261,76.50944 303.12402,76.02637 C 303.31542,75.5433 303.41112,74.93262 303.41113,74.19434 C 303.41112,73.45606 303.30403,72.84994 303.08984,72.37598 C 302.87564,71.90203 302.57714,71.52833 302.19434,71.25488 C 301.81151,70.98145 301.35806,70.79233 300.83398,70.6875 C 300.30989,70.58269 299.74251,70.53028 299.13184,70.53027 L 297.96973,70.53027 L 297.96973,68.26074 L 298.87207,68.26074 C 300.10253,68.26075 301.10286,67.96909 301.87305,67.38574 C 302.64322,66.80242 303.02831,65.95477 303.02832,64.84277 C 303.02831,64.33237 302.92805,63.89259 302.72754,63.52344 C 302.52701,63.15431 302.2718,62.86037 301.96191,62.6416 C 301.61555,62.40464 301.23274,62.24058 300.81348,62.14941 C 300.3942,62.05829 299.94758,62.01271 299.47363,62.0127 L 299.47363,62.0127 z "
       style="font-size:28px;font-style:normal;font-weight:normal;fill:#000000;fill-opacity:1;stroke:none;stroke-width:1px;stroke-linecap:butt;stroke-linejoin:miter;stroke-opacity:1;font-family:Tahoma"
       id="bridge_label_3" />
    <path
       d="M 68.35938,305.64063 L 55.79492,305.64063 L 55.79492,302.7832 C 56.69726,301.92644 57.54948,301.10611 58.35156,300.32227 C 59.15364,299.53841 59.93749,298.72266 60.70313,297.875 C 62.2526,296.17057 63.30989,294.80567 63.875,293.78026 C 64.44009,292.7549 64.72265,291.69533 64.72266,290.60156 C 64.72265,290.03647 64.63378,289.53973 64.45605,289.11133 C 64.27831,288.68295 64.0345,288.32749 63.72461,288.04492 C 63.40559,287.7715 63.03645,287.56642 62.61719,287.42969 C 62.19791,287.29298 61.73762,287.22463 61.23633,287.22461 C 60.75325,287.22463 60.26334,287.28615 59.7666,287.40918 C 59.26985,287.53224 58.79362,287.68491 58.33789,287.86719 C 57.95507,288.02215 57.58593,288.209 57.23047,288.42773 C 56.875,288.6465 56.58789,288.83335 56.36914,288.98827 L 56.21875,288.98827 L 56.21875,286.08983 C 56.78385,285.8073 57.56998,285.5316 58.57715,285.2627 C 59.5843,284.99383 60.53906,284.8594 61.44141,284.85938 C 63.33723,284.8594 64.82291,285.36298 65.89844,286.37012 C 66.97395,287.3773 67.51171,288.7422 67.51172,290.46483 C 67.51171,291.25783 67.41828,291.99155 67.23145,292.66602 C 67.04458,293.34051 66.7871,293.96486 66.45898,294.53906 C 66.12173,295.13152 65.71613,295.7194 65.24219,296.30273 C 64.76822,296.88608 64.26692,297.46029 63.73828,298.02539 C 62.8815,298.95508 61.92675,299.92122 60.87402,300.92383 C 59.82128,301.92644 58.98046,302.7194 58.35156,303.30273 L 68.35938,303.30273 L 68.35938,305.64063 z M 84.20508,298.64063 L 81.78516,298.64063 L 81.78516,305.64063 L 79.16016,305.64063 L 79.16016,298.64063 L 70.16406,298.64063 L 70.16406,295.76952 L 79.26953,285.2832 L 81.78516,285.2832 L 81.78516,296.45313 L 84.20508,296.45313 L 84.20508,298.64063 z M 79.16016,296.45313 L 79.16016,288.49608 L 72.29688,296.45313 L 79.16016,296.45313 z "
       style="font-size:12px;font-style:normal;font-weight:normal;fill:#000000;fill-opacity:1;stroke:none;stroke-width:1px;stroke-linecap:butt;stroke-linejoin:miter;stroke-opacity:1;font-family:Tahoma"
       id="bridge_label_24" />
    <path
       d="M 331.23339,298.45215 C 331.23339,297.06675 331.10578,295.93882 330.85059,295.06836 C 330.59537,294.19794 330.24446,293.52574 329.79786,293.05176 C 329.3968,292.61428 328.99121,292.3135 328.58105,292.14942 C 328.17089,291.98537 327.71971,291.90334 327.22753,291.90332 C 326.10644,291.90334 325.21321,292.30438 324.54786,293.10645 C 323.88248,293.90855 323.5498,295.07066 323.5498,296.59278 C 323.5498,297.44956 323.65918,298.15594 323.87793,298.71192 C 324.09668,299.26792 324.45214,299.74643 324.94434,300.14747 C 325.29069,300.43003 325.68262,300.61915 326.12012,300.71485 C 326.5576,300.81056 327.02701,300.85841 327.52832,300.8584 C 328.11164,300.85841 328.74055,300.75587 329.41503,300.55079 C 330.08951,300.34572 330.6774,300.07456 331.17871,299.73731 C 331.18782,299.6006 331.19921,299.42059 331.21289,299.19727 C 331.22654,298.97397 331.23339,298.7256 331.23339,298.45215 L 331.23339,298.45215 z M 320.77441,296.70215 C 320.77441,295.65399 320.94532,294.69696 321.28711,293.83106 C 321.62891,292.96519 322.09603,292.2178 322.68848,291.58887 C 323.25357,290.98733 323.944,290.51793 324.75977,290.18067 C 325.57552,289.84345 326.40266,289.67483 327.24121,289.67481 C 328.18001,289.67483 329.02994,289.83206 329.79102,290.14649 C 330.55207,290.46096 331.2106,290.91441 331.76661,291.50684 C 332.46842,292.25425 333.01301,293.23407 333.40039,294.44629 C 333.78774,295.65855 333.98142,297.1898 333.98145,299.04004 C 333.98142,300.72625 333.7923,302.32358 333.41407,303.83204 C 333.0358,305.3405 332.47753,306.59148 331.73925,307.58497 C 330.95539,308.64226 330.01432,309.4489 328.91602,310.00489 C 327.81769,310.56088 326.46191,310.83887 324.84863,310.83887 C 324.48405,310.83887 324.09668,310.81836 323.68652,310.77735 C 323.27637,310.73633 322.89355,310.66114 322.53809,310.55176 L 322.53809,307.94043 L 322.6748,307.94043 C 322.90266,308.06804 323.25814,308.19109 323.74121,308.30957 C 324.22428,308.42807 324.71646,308.48731 325.21777,308.48731 C 327.00423,308.48731 328.40787,307.89942 329.42871,306.72364 C 330.44953,305.54786 331.02831,303.86622 331.16503,301.67872 C 330.43587,302.17091 329.74087,302.53094 329.08007,302.75879 C 328.41927,302.98667 327.70149,303.1006 326.92675,303.10059 C 326.17024,303.1006 325.48208,303.01857 324.8623,302.8545 C 324.24251,302.69044 323.61816,302.37143 322.98925,301.89747 C 322.26009,301.34148 321.70866,300.63738 321.33496,299.78516 C 320.96127,298.93296 320.77441,297.90529 320.77441,296.70215 L 320.77441,296.70215 z M 349.22559,310.44239 L 336.66113,310.44239 L 336.66113,307.58497 C 337.56348,306.7282 338.41569,305.90789 339.21777,305.12403 C 340.01986,304.34018 340.80371,303.52443 341.56934,302.67676 C 343.1188,300.97234 344.1761,299.60744 344.74121,298.58204 C 345.3063,297.55666 345.58885,296.49709 345.58887,295.40332 C 345.58885,294.83824 345.49999,294.34149 345.32227,293.91309 C 345.14453,293.48472 344.90071,293.12925 344.59082,292.84668 C 344.2718,292.57326 343.90265,292.36819 343.48339,292.23145 C 343.06412,292.09475 342.60384,292.02639 342.10253,292.02637 C 341.61946,292.02639 341.12955,292.08791 340.63282,292.21094 C 340.13607,292.33401 339.65982,292.48668 339.20411,292.66895 C 338.82128,292.82392 338.45214,293.01076 338.09668,293.2295 C 337.74121,293.44826 337.4541,293.63511 337.23536,293.79004 L 337.08496,293.79004 L 337.08496,290.89161 C 337.65007,290.60907 338.4362,290.33336 339.44336,290.06446 C 340.45052,289.7956 341.40526,289.66116 342.30762,289.66114 C 344.20344,289.66116 345.68912,290.16474 346.76464,291.17188 C 347.84015,292.17906 348.37792,293.54397 348.37793,295.26661 C 348.37792,296.05959 348.28449,296.79331 348.09766,297.46778 C 347.9108,298.14227 347.65331,298.76662 347.3252,299.34082 C 346.98794,299.93328 346.58235,300.52117 346.10839,301.1045 C 345.63442,301.68784 345.13312,302.26206 344.6045,302.82715 C 343.74771,303.75685 342.79296,304.72299 341.74023,305.72559 C 340.6875,306.7282 339.84668,307.52117 339.21777,308.1045 L 349.22559,308.1045 L 349.22559,310.44239 z "
       style="font-size:12px;font-style:normal;font-weight:normal;fill:#000000;fill-opacity:1;stroke:none;stroke-width:1px;stroke-linecap:butt;stroke-linejoin:miter;stroke-opacity:1;font-family:Tahoma"
       id="bridge_label_92" />
    <path
       d="M 556.78711,310.64062 L 546.86133,310.64062 L 546.86133,308.5625 L 550.55273,308.5625 L 550.55273,294.91797 L 546.86133,294.91797 L 546.86133,293.05859 C 548.25585,293.05861 549.28352,292.86037 549.94434,292.46387 C 550.60514,292.0674 550.97655,291.31773 551.05859,290.21484 L 553.17773,290.21484 L 553.17773,308.5625 L 556.78711,308.5625 L 556.78711,310.64062 z M 573.13867,310.64062 L 560.57422,310.64062 L 560.57422,307.7832 C 561.47656,306.92644 562.32877,306.10612 563.13086,305.32227 C 563.93294,304.53842 564.71679,303.72266 565.48242,302.875 C 567.03189,301.17058 568.08918,299.80567 568.6543,298.78027 C 569.21939,297.7549 569.50194,296.69533 569.50195,295.60156 C 569.50194,295.03647 569.41307,294.53973 569.23535,294.11133 C 569.05761,293.68296 568.81379,293.32749 568.50391,293.04492 C 568.18489,292.7715 567.81575,292.56642 567.39648,292.42969 C 566.9772,292.29299 566.51692,292.22463 566.01562,292.22461 C 565.53254,292.22463 565.04264,292.28615 564.5459,292.40918 C 564.04915,292.53224 563.57291,292.68491 563.11719,292.86719 C 562.73437,293.02215 562.36523,293.209 562.00976,293.42773 C 561.65429,293.6465 561.36718,293.83335 561.14844,293.98828 L 560.99805,293.98828 L 560.99805,291.08984 C 561.56315,290.80731 562.34928,290.5316 563.35644,290.2627 C 564.3636,289.99384 565.31835,289.8594 566.2207,289.85937 C 568.11653,289.8594 569.6022,290.36298 570.67773,291.37012 C 571.75324,292.3773 572.291,293.7422 572.29101,295.46484 C 572.291,296.25783 572.19758,296.99155 572.01074,297.66602 C 571.82388,298.34051 571.56639,298.96486 571.23828,299.53906 C 570.90103,300.13152 570.49543,300.71941 570.02148,301.30273 C 569.54751,301.88608 569.04621,302.46029 568.51758,303.02539 C 567.6608,303.95508 566.70605,304.92123 565.65332,305.92383 C 564.60058,306.92644 563.75976,307.7194 563.13086,308.30273 L 573.13867,308.30273 L 573.13867,310.64062 z "
       style="font-size:12px;font-style:normal;font-weight:normal;fill:#000000;fill-opacity:1;stroke:none;stroke-width:1px;stroke-linecap:butt;stroke-linejoin:miter;stroke-opacity:1;font-family:Tahoma"
       id="bridge_label_12" />
    <path
       d="M 481.45996,513.12012 L 472.65527,530.42871 L 469.74316,530.42871 L 479.06738,512.46387 L 468.54004,512.46387 L 468.54004,510.07129 L 481.45996,510.07129 L 481.45996,513.12012 z "
       style="font-size:28px;font-style:normal;font-weight:normal;fill:#000000;fill-opacity:1;stroke:none;stroke-width:1px;stroke-linecap:butt;stroke-linejoin:miter;stroke-opacity:1;font-family:Tahoma"
       id="bridge_label_7" />
    <path
       d="M 62.02051,523.42871 L 59.60059,523.42871 L 59.60059,530.42871 L 56.97559,530.42871 L 56.97559,523.42871 L 47.97949,523.42871 L 47.97949,520.55762 L 57.08496,510.07129 L 59.60059,510.07129 L 59.60059,521.24121 L 62.02051,521.24121 L 62.02051,523.42871 z M 56.97559,521.24121 L 56.97559,513.28418 L 50.1123,521.24121 L 56.97559,521.24121 z "
       style="font-size:28px;font-style:normal;font-variant:normal;font-weight:normal;font-stretch:normal;text-indent:0;text-align:start;text-decoration:none;line-height:normal;letter-spacing:normal;word-spacing:normal;text-transform:none;direction:ltr;block-progression:tb;writing-mode:lr-tb;text-anchor:start;color:#000000;fill:#000000;fill-opacity:1;fill-rule:nonzero;stroke:none;stroke-width:1px;stroke-linecap:butt;stroke-linejoin:miter;marker:none;marker-start:none;marker-mid:none;marker-end:none;stroke-miterlimit:4;stroke-dashoffset:0;stroke-opacity:1;visibility:visible;display:inline;overflow:visible;enable-background:accumulate;font-family:Tahoma"
       id="bridge_label_4" />
    <path
       d="M 311.06348,523.73632 C 311.06346,524.72071 310.90624,525.63216 310.5918,526.47069 C 310.27733,527.30925 309.83755,528.03386 309.27246,528.64453 C 308.69823,529.26432 307.98502,529.75194 307.13281,530.10742 C 306.28059,530.46289 305.32584,530.64062 304.26855,530.64063 C 303.29329,530.64062 302.33398,530.53353 301.39063,530.31934 C 300.44726,530.10514 299.62923,529.82487 298.93652,529.47852 L 298.93652,526.59375 L 299.12793,526.59375 C 299.33756,526.7487 299.63834,526.92416 300.03027,527.12012 C 300.4222,527.31608 300.85514,527.50064 301.3291,527.67382 C 301.86686,527.86523 302.35904,528.01334 302.80566,528.11816 C 303.25227,528.22298 303.75357,528.27539 304.30957,528.27539 C 304.85644,528.27539 305.38964,528.17741 305.90918,527.98145 C 306.4287,527.78548 306.87532,527.46875 307.24902,527.03125 C 307.58625,526.63021 307.84374,526.1608 308.02148,525.62305 C 308.19921,525.08529 308.28807,524.45182 308.28809,523.72266 C 308.28807,523.00261 308.19009,522.41016 307.99414,521.9453 C 307.79817,521.48048 307.51334,521.09767 307.13965,520.79688 C 306.74771,520.45052 306.26692,520.20672 305.69727,520.06543 C 305.1276,519.92416 304.49185,519.85352 303.79004,519.85352 C 303.05175,519.85352 302.30891,519.91048 301.56152,520.02441 C 300.81412,520.13836 300.21712,520.24545 299.77051,520.34569 L 299.77051,509.85938 L 310.94043,509.85938 L 310.94043,512.25194 L 302.40918,512.25194 L 302.40918,517.66602 C 302.7373,517.62956 303.06087,517.60222 303.37988,517.58398 C 303.69889,517.56577 303.99055,517.55665 304.25488,517.55664 C 305.29394,517.55665 306.17349,517.64324 306.89355,517.81641 C 307.6136,517.9896 308.3063,518.32682 308.97168,518.82813 C 309.64615,519.33855 310.1634,519.97657 310.52344,520.74219 C 310.88345,521.50782 311.06346,522.50586 311.06348,523.73632 L 311.06348,523.73632 z "
       style="font-size:28px;font-style:normal;font-weight:normal;fill:#000000;fill-opacity:1;stroke:none;stroke-width:1px;stroke-linecap:butt;stroke-linejoin:miter;stroke-opacity:1;font-family:Tahoma"
       id="bridge_label_5" />
  </g>
  <g
     id="segments">
    <path
       d="M 170.07931,146.12383 C 166.51624,146.27278 162.76142,148.8228 161.23849,153.31744 C 157.82157,148.70571 149.82593,153.11033 152.629,158.74705 C 140.57172,155.35107 132.49261,177.79667 155.6488,176.63717 C 140.87924,188.88042 165.75349,199.75079 176.11878,187.95929 C 176.76944,195.67057 186.94431,196.64586 190.29239,189.76083 C 193.60458,196.01399 203.82577,195.24948 204.94146,185.45717 C 209.35113,190.54665 217.20829,184.09344 213.55094,179.12684 C 219.32154,179.67528 222.10703,171.53206 214.4761,169.84394 C 220.01352,163.85145 210.82773,156.78988 204.94146,161.69952 C 208.15813,153.48681 199.91999,147.44603 192.15558,153.31744 C 193.8624,146.29281 182.78724,142.36821 177.27528,151.27822 C 176.02572,147.62446 173.126,145.99648 170.07931,146.12383 z "
       style="font-size:28px;fill:#ffffff;fill-opacity:1;fill-rule:evenodd;stroke:#000000;stroke-width:1.73383272;stroke-linecap:butt;stroke-linejoin:miter;stroke-miterlimit:4;stroke-dasharray:none;stroke-opacity:1"
       id="segment_a" />
    <path
       d="M 410.07931,156.12383 C 406.51624,156.27278 402.76142,158.8228 401.23849,163.31744 C 397.82157,158.70571 389.82593,163.11033 392.629,168.74705 C 380.57172,165.35107 372.49261,187.79667 395.6488,186.63717 C 380.87924,198.88042 405.75349,209.75079 416.11878,197.95929 C 416.76944,205.67057 426.94431,206.64586 430.29239,199.76083 C 433.60458,206.01399 443.82577,205.24948 444.94146,195.45717 C 449.35113,200.54665 457.20829,194.09344 453.55094,189.12684 C 459.32154,189.67528 462.10703,181.53206 454.4761,179.84394 C 460.01352,173.85145 450.82773,166.78988 444.94146,171.69952 C 448.15813,163.48681 439.91999,157.44603 432.15558,163.31744 C 433.8624,156.29281 422.78724,152.36821 417.27528,161.27822 C 416.02572,157.62446 413.126,155.99648 410.07931,156.12383 z "
       style="font-size:28px;fill:#ffffff;fill-opacity:1;fill-rule:evenodd;stroke:#000000;stroke-width:1.73383272;stroke-linecap:butt;stroke-linejoin:miter;stroke-miterlimit:4;stroke-dasharray:none;stroke-opacity:1"
       id="segment_b" />
    <path
       d="M 40.07931,376.12383 C 36.516241,376.27278 32.761421,378.8228 31.238491,383.31744 C 27.821571,378.70571 19.825931,383.11033 22.629001,388.74705 C 10.571721,385.35107 2.4926111,407.79667 25.648801,406.63717 C 10.879241,418.88042 35.753491,429.75079 46.11878,417.95929 C 46.76944,425.67057 56.94431,426.64586 60.29239,419.76083 C 63.60458,426.01399 73.82577,425.24948 74.94146,415.45717 C 79.35113,420.54665 87.20829,414.09344 83.55094,409.12684 C 89.32154,409.67528 92.10703,401.53206 84.4761,399.84394 C 90.01352,393.85145 80.82773,386.78988 74.94146,391.69952 C 78.15813,383.48681 69.91999,377.44603 62.15558,383.31744 C 63.8624,376.29281 52.78724,372.36821 47.27528,381.27822 C 46.02572,377.62446 43.126,375.99648 40.07931,376.12383 z "
       style="font-size:28px;fill:#ffffff;fill-opacity:1;fill-rule:evenodd;stroke:#000000;stroke-width:1.73383272;stroke-linecap:butt;stroke-linejoin:miter;stroke-miterlimit:4;stroke-dasharray:none;stroke-opacity:1"
       id="segment_c" />
    <path
       d="M 170.07931,276.12383 C 166.51624,276.27278 162.76142,278.8228 161.23849,283.31744 C 157.82157,278.70571 149.82593,283.11033 152.629,288.74705 C 140.57172,285.35107 132.49261,307.79667 155.6488,306.63717 C 140.87924,318.88042 165.75349,329.75079 176.11878,317.95929 C 176.76944,325.67057 186.94431,326.64586 190.29239,319.76083 C 193.60458,326.01399 203.82577,325.24948 204.94146,315.45717 C 209.35113,320.54665 217.20829,314.09344 213.55094,309.12684 C 219.32154,309.67528 222.10703,301.53206 214.4761,299.84394 C 220.01352,293.85145 210.82773,286.78988 204.94146,291.69952 C 208.15813,283.48681 199.91999,277.44603 192.15558,283.31744 C 193.8624,276.29281 182.78724,272.36821 177.27528,281.27822 C 176.02572,277.62446 173.126,275.99648 170.07931,276.12383 z "
       style="font-size:28px;fill:#ffffff;fill-opacity:1;fill-rule:evenodd;stroke:#000000;stroke-width:1.73383272;stroke-linecap:butt;stroke-linejoin:miter;stroke-miterlimit:4;stroke-dasharray:none;stroke-opacity:1"
       id="segment_d" />
    <path
       d="M 370.07931,386.12383 C 366.51624,386.27278 362.76142,388.8228 361.23849,393.31744 C 357.82157,388.70571 349.82593,393.11033 352.629,398.74705 C 340.57172,395.35107 332.49261,417.79667 355.6488,416.63717 C 340.87924,428.88042 365.75349,439.75079 376.11878,427.95929 C 376.76944,435.67057 386.94431,436.64586 390.29239,429.76083 C 393.60458,436.01399 403.82577,435.24948 404.94146,425.45717 C 409.35113,430.54665 417.20829,424.09344 413.55094,419.12684 C 419.32154,419.67528 422.10703,411.53206 414.4761,409.84394 C 420.01352,403.85145 410.82773,396.78988 404.94146,401.69952 C 408.15813,393.48681 399.91999,387.44603 392.15558,393.31744 C 393.8624,386.29281 382.78724,382.36821 377.27528,391.27822 C 376.02572,387.62446 373.126,385.99648 370.07931,386.12383 z "
       style="font-size:28px;fill:#ffffff;fill-opacity:1;fill-rule:evenodd;stroke:#000000;stroke-width:1.73383272;stroke-linecap:butt;stroke-linejoin:miter;stroke-miterlimit:4;stroke-dasharray:none;stroke-opacity:1"
       id="segment_e" />
    <path
       d="M 154.29645,486.54013 C 150.73338,486.68908 146.97856,489.2391 145.45563,493.73374 C 142.03871,489.12201 134.04307,493.52663 136.84614,499.16335 C 124.78886,495.76737 116.70975,518.21297 139.86594,517.05347 C 125.09638,529.29672 149.97063,540.16709 160.33592,528.37559 C 160.98658,536.08687 171.16145,537.06216 174.50953,530.17713 C 177.82172,536.43029 188.04291,535.66578 189.1586,525.87347 C 193.56827,530.96295 201.42543,524.50974 197.76808,519.54314 C 203.53868,520.09158 206.32417,511.94836 198.69324,510.26024 C 204.23066,504.26775 195.04487,497.20618 189.1586,502.11582 C 192.37527,493.90311 184.13713,487.86233 176.37272,493.73374 C 178.07954,486.70911 167.00438,482.78451 161.49242,491.69452 C 160.24286,488.04076 157.34314,486.41278 154.29645,486.54013 z "
       style="font-size:28px;fill:#ffffff;fill-opacity:1;fill-rule:evenodd;stroke:#000000;stroke-width:1.73383272;stroke-linecap:butt;stroke-linejoin:miter;stroke-miterlimit:4;stroke-dasharray:none;stroke-opacity:1"
       id="segment_f" />
  </g>
  <g
     id="segment_labels">
    <path
       d="M 183.52049,174.09892 L 183.52049,169.86064 C 182.90981,169.91534 182.13735,169.99053 181.20311,170.08623 C 180.26886,170.18194 179.51463,170.31638 178.94041,170.48955 C 178.25682,170.69919 177.69171,171.02048 177.2451,171.45341 C 176.79848,171.88636 176.57518,172.4902 176.57518,173.26494 C 176.57518,174.13994 176.82127,174.80075 177.31346,175.24736 C 177.80564,175.69398 178.5257,175.91728 179.47362,175.91728 C 180.28481,175.91728 181.01853,175.74183 181.67479,175.39091 C 182.33103,175.04001 182.94626,174.60934 183.52049,174.09892 L 183.52049,174.09892 z M 183.52049,176.23174 C 183.31085,176.38668 183.03057,176.60316 182.67967,176.88115 C 182.32875,177.15914 181.98923,177.38017 181.66112,177.54424 C 181.20538,177.78121 180.7656,177.96351 180.34178,178.09111 C 179.91795,178.21871 179.32322,178.28252 178.5576,178.28252 C 177.92869,178.28252 177.33169,178.16403 176.76659,177.92705 C 176.20148,177.69007 175.70473,177.35739 175.27635,176.929 C 174.86619,176.50973 174.53807,175.99248 174.29198,175.37724 C 174.04588,174.76201 173.92284,174.1126 173.92284,173.429 C 173.92284,172.37171 174.14614,171.47165 174.59276,170.72881 C 175.03937,169.98597 175.74575,169.39581 176.7119,168.9583 C 177.56867,168.56638 178.58038,168.29522 179.74706,168.14482 C 180.91371,167.99444 182.17153,167.88279 183.52049,167.80986 L 183.52049,167.31767 C 183.52048,166.71612 183.42934,166.23077 183.24706,165.86162 C 183.06475,165.49249 182.80955,165.20766 182.48143,165.00713 C 182.1533,164.7975 181.75225,164.65851 181.27831,164.59013 C 180.80434,164.52179 180.31671,164.48761 179.81541,164.48759 C 179.22296,164.48761 178.5257,164.57648 177.72362,164.7542 C 176.92153,164.93194 176.11945,165.18943 175.31737,165.52666 L 175.16698,165.52666 L 175.16698,162.91533 C 175.64093,162.77863 176.31997,162.62823 177.20409,162.46416 C 178.0882,162.30011 178.9632,162.21808 179.82909,162.21806 C 180.87726,162.21808 181.76137,162.30011 182.48143,162.46416 C 183.20147,162.62823 183.84861,162.92446 184.42284,163.35283 C 184.97881,163.77211 185.39353,164.31443 185.66698,164.97978 C 185.9404,165.64516 186.07712,166.45636 186.07713,167.41338 L 186.07713,177.85869 L 183.52049,177.85869 L 183.52049,176.23174 z "
       style="font-size:28px;font-style:normal;font-weight:normal;fill:#000000;fill-opacity:1;stroke:none;stroke-width:1px;stroke-linecap:butt;stroke-linejoin:miter;stroke-opacity:1;font-family:Tahoma"
       id="segment_label_a" />
    <path
       d="M 423.75293,182.99121 C 423.75292,181.1683 423.47492,179.78517 422.91895,178.8418 C 422.36295,177.89845 421.46972,177.42677 420.23926,177.42676 C 419.53743,177.42677 418.82877,177.59083 418.11328,177.91895 C 417.39778,178.24708 416.74837,178.6618 416.16504,179.16309 L 416.16504,187.91309 C 416.81217,188.2321 417.38639,188.45768 417.8877,188.58984 C 418.38899,188.72201 418.94042,188.78809 419.54199,188.78809 C 420.85448,188.78809 421.88443,188.32324 422.63184,187.39355 C 423.37922,186.46387 423.75292,184.99642 423.75293,182.99121 L 423.75293,182.99121 z M 426.40527,182.78613 C 426.40526,185.28353 425.79914,187.2933 424.58691,188.81543 C 423.37466,190.33757 421.85709,191.09863 420.03418,191.09863 C 419.20475,191.09863 418.49609,190.99609 417.9082,190.79102 C 417.32031,190.58594 416.73925,190.31022 416.16504,189.96387 L 416.00098,190.6748 L 413.59473,190.6748 L 413.59473,169.40137 L 416.16504,169.40137 L 416.16504,177.00293 C 416.81217,176.41961 417.51399,175.93654 418.27051,175.55371 C 419.02701,175.17091 419.88378,174.97951 420.84082,174.97949 C 422.56347,174.97951 423.92154,175.66994 424.91504,177.05078 C 425.90851,178.43165 426.40526,180.34343 426.40527,182.78613 L 426.40527,182.78613 z "
       style="font-size:28px;font-style:normal;font-weight:normal;fill:#000000;fill-opacity:1;stroke:none;stroke-width:1px;stroke-linecap:butt;stroke-linejoin:miter;stroke-opacity:1;font-family:Tahoma"
       id="segment_label_b" />
    <path
       d="M 51.30566,408.23438 C 50.25748,408.23437 49.29589,408.07259 48.4209,407.74902 C 47.54589,407.42546 46.79394,406.93555 46.16504,406.2793 C 45.53613,405.62305 45.0485,404.7959 44.70215,403.79785 C 44.35579,402.79981 44.18262,401.62631 44.18262,400.27734 C 44.18262,398.93751 44.36263,397.77996 44.72266,396.80469 C 45.08268,395.82944 45.56347,395.00913 46.16504,394.34375 C 46.7666,393.6784 47.51627,393.1657 48.41406,392.80566 C 49.31184,392.44565 50.27571,392.26564 51.30566,392.26563 C 52.1442,392.26564 52.95312,392.38413 53.73242,392.62109 C 54.51171,392.85809 55.20669,393.13153 55.81738,393.44141 L 55.81738,396.32617 L 55.66699,396.32617 C 55.48469,396.17124 55.24999,395.9935 54.96289,395.79297 C 54.67577,395.59246 54.32714,395.38738 53.91699,395.17773 C 53.56151,394.99546 53.14224,394.83595 52.65918,394.69922 C 52.1761,394.56251 51.71125,394.49415 51.26465,394.49414 C 49.93391,394.49415 48.86523,394.99773 48.05859,396.00488 C 47.25195,397.01206 46.84863,398.43621 46.84863,400.27734 C 46.84863,402.08204 47.23828,403.48796 48.01758,404.49512 C 48.79687,405.50228 49.87923,406.00586 51.26465,406.00586 C 52.10318,406.00586 52.90071,405.83268 53.65723,405.48633 C 54.41373,405.13998 55.08365,404.69336 55.66699,404.14648 L 55.81738,404.14648 L 55.81738,407.03125 C 55.56216,407.14974 55.24315,407.29329 54.86035,407.46191 C 54.47753,407.63053 54.13117,407.75586 53.82129,407.83789 C 53.38378,407.96549 52.99185,408.06348 52.64551,408.13184 C 52.29914,408.2002 51.85253,408.23437 51.30566,408.23438 L 51.30566,408.23438 z "
       style="font-size:28px;font-style:normal;font-weight:normal;fill:#000000;fill-opacity:1;stroke:none;stroke-width:1px;stroke-linecap:butt;stroke-linejoin:miter;stroke-opacity:1;font-family:Tahoma"
       id="segment_label_c" />
    <path
       d="M 186.40527,310.6748 L 183.83496,310.6748 L 183.83496,309.11621 C 183.43391,309.45345 183.08755,309.73145 182.7959,309.9502 C 182.50422,310.16895 182.16243,310.36947 181.77051,310.55176 C 181.40592,310.72493 181.02766,310.85937 180.63574,310.95508 C 180.24381,311.05078 179.78808,311.09863 179.26855,311.09863 C 178.43912,311.09863 177.67122,310.92546 176.96484,310.5791 C 176.25846,310.23275 175.65918,309.72689 175.16699,309.06152 C 174.66569,308.38705 174.27832,307.55534 174.00488,306.56641 C 173.73144,305.57748 173.59473,304.44044 173.59473,303.15527 C 173.59473,301.81544 173.7679,300.65561 174.11426,299.67578 C 174.46061,298.69598 174.93913,297.84148 175.5498,297.1123 C 176.10579,296.44695 176.77799,295.92514 177.56641,295.54688 C 178.35481,295.16864 179.18196,294.97951 180.04785,294.97949 C 180.81347,294.97951 181.47883,295.06382 182.04395,295.23242 C 182.60904,295.40106 183.20604,295.6631 183.83496,296.01855 L 183.83496,289.40137 L 186.40527,289.40137 L 186.40527,310.6748 z M 183.83496,306.95605 L 183.83496,298.15137 C 183.19693,297.84148 182.62499,297.62729 182.11914,297.50879 C 181.61327,297.39031 181.06412,297.33107 180.47168,297.33105 C 179.15006,297.33107 178.11555,297.82553 177.36816,298.81445 C 176.62076,299.8034 176.24707,301.23211 176.24707,303.10059 C 176.24707,304.89616 176.53418,306.27019 177.1084,307.22266 C 177.68261,308.17513 178.60318,308.65137 179.87012,308.65137 C 180.54459,308.65137 181.22362,308.4987 181.90723,308.19336 C 182.59081,307.88802 183.23339,307.47559 183.83496,306.95605 L 183.83496,306.95605 z "
       style="font-size:28px;font-style:normal;font-weight:normal;fill:#000000;fill-opacity:1;stroke:none;stroke-width:1px;stroke-linecap:butt;stroke-linejoin:miter;stroke-opacity:1;font-family:Tahoma"
       id="segment_label_d" />
    <path
       d="M 381.08691,418.27539 C 378.65331,418.27539 376.76432,417.58952 375.41992,416.21777 C 374.07552,414.84603 373.40332,412.89779 373.40332,410.37305 C 373.40332,407.88478 374.05501,405.90463 375.3584,404.43262 C 376.66178,402.96063 378.36621,402.22463 380.47168,402.22461 C 381.41959,402.22463 382.25813,402.36134 382.9873,402.63477 C 383.71646,402.90822 384.35448,403.3366 384.90137,403.91992 C 385.44823,404.50327 385.8675,405.21648 386.15918,406.05957 C 386.45083,406.90268 386.59667,407.93491 386.59668,409.15625 L 386.59668,410.55078 L 376.01465,410.55078 C 376.01465,412.32813 376.46126,413.6862 377.35449,414.625 C 378.24772,415.5638 379.48274,416.03321 381.05957,416.0332 C 381.62467,416.03321 382.17838,415.9694 382.7207,415.8418 C 383.26301,415.71419 383.75292,415.55013 384.19043,415.34961 C 384.65526,415.13998 385.04719,414.93718 385.36621,414.74121 C 385.68521,414.54525 385.94953,414.36068 386.15918,414.1875 L 386.30957,414.1875 L 386.30957,416.99023 C 386.00878,417.10872 385.63508,417.25684 385.18848,417.43457 C 384.74185,417.6123 384.34081,417.7513 383.98535,417.85156 C 383.48404,417.98828 383.03059,418.0931 382.625,418.16602 C 382.21939,418.23893 381.7067,418.27539 381.08691,418.27539 L 381.08691,418.27539 z M 384.09473,408.58203 C 384.07649,407.88933 383.99445,407.29233 383.84863,406.79102 C 383.70279,406.28973 383.49315,405.8659 383.21973,405.51953 C 382.91893,405.13673 382.53384,404.84507 382.06445,404.64453 C 381.59504,404.44402 381.01399,404.34376 380.32129,404.34375 C 379.63769,404.34376 379.05663,404.4463 378.57813,404.65137 C 378.0996,404.85646 377.66438,405.15496 377.27246,405.54688 C 376.88964,405.94793 376.59798,406.39226 376.39746,406.87988 C 376.19694,407.36752 376.06933,407.93491 376.01465,408.58203 L 384.09473,408.58203 z "
       style="font-size:28px;font-style:normal;font-weight:normal;fill:#000000;fill-opacity:1;stroke:none;stroke-width:1px;stroke-linecap:butt;stroke-linejoin:miter;stroke-opacity:1;font-family:Tahoma"
       id="segment_label_e" />
    <path
       d="M 168.96811,502.55886 L 168.83139,502.55886 C 168.60352,502.47685 168.27539,502.3971 167.84702,502.31961 C 167.41862,502.24215 167.03581,502.20341 166.69858,502.20339 C 165.61394,502.20341 164.84148,502.44723 164.3812,502.93484 C 163.9209,503.42249 163.69076,504.30432 163.69077,505.58035 L 163.69077,506.09988 L 167.94272,506.09988 L 167.94272,508.23269 L 163.7728,508.23269 L 163.7728,521.37136 L 161.20248,521.37136 L 161.20248,508.23269 L 159.46616,508.23269 L 159.46616,506.09988 L 161.20248,506.09988 L 161.20248,505.59402 C 161.20248,503.75289 161.64454,502.3538 162.52866,501.39675 C 163.41277,500.43974 164.67969,499.96123 166.32944,499.96121 C 166.80339,499.96123 167.26823,499.98629 167.72397,500.0364 C 168.17969,500.08655 168.5944,500.14352 168.96811,500.2073 L 168.96811,502.55886 z "
       style="font-size:28px;font-style:normal;font-weight:normal;fill:#000000;fill-opacity:1;stroke:none;stroke-width:1px;stroke-linecap:butt;stroke-linejoin:miter;stroke-opacity:1;font-family:Tahoma"
       id="segment_label_f" />
  </g>
</svg>
