<?xml version="1.0" encoding="UTF-8" standalone="no"?>
<!-- Created with Inkscape (http://www.inkscape.org/) -->
<svg
   xmlns:svg="http://www.w3.org/2000/svg"
   xmlns="http://www.w3.org/2000/svg"
   version="1.0"
   width="590.5"
   height="590.5"
   id="stp1">
  <defs
     id="defs" />
  <g
     id="links">
    <path
       d="M 285,70.25 L 180,170.25"
       style="fill:none;fill-rule:evenodd;stroke:#008000;stroke-width:1px;stroke-linecap:butt;stroke-linejoin:miter;stroke-opacity:1"
       id="link_a_3" />
    <path
       d="M 180,170.25 L 70,275.25"
       style="fill:none;fill-rule:evenodd;stroke:#000080;stroke-width:1px;stroke-linecap:butt;stroke-linejoin:miter;stroke-opacity:1"
       id="link_a_24" />
    <path
       d="M 315,70.25 L 420,180.25"
       style="fill:none;fill-rule:evenodd;stroke:#008000;stroke-width:1px;stroke-linecap:butt;stroke-linejoin:miter;stroke-opacity:1"
       id="link_b_3" />
    <path
       d="M 560,280.25 L 420,180.25"
       style="fill:none;fill-rule:evenodd;stroke:#000080;stroke-width:1px;stroke-linecap:butt;stroke-linejoin:miter;stroke-opacity:1"
       id="link_b_12" />
    <path
       d="M 335,280.25 L 420,180.25"
       style="fill:none;fill-rule:evenodd;stroke:#000080;stroke-width:1px;stroke-linecap:butt;stroke-linejoin:miter;stroke-opacity:1"
       id="link_b_92" />
    <path
       d="M 55,500.25 L 50,400.25"
       style="fill:none;fill-rule:evenodd;stroke:#000080;stroke-width:1px;stroke-linecap:butt;stroke-linejoin:miter;stroke-opacity:1"
       id="link_c_4" />
    <path
       d="M 70,315.25 L 50,400.25"
       style="fill:none;fill-rule:evenodd;stroke:#008000;stroke-width:1px;stroke-linecap:butt;stroke-linejoin:miter;stroke-opacity:1"
       id="link_c_24" />
    <path
       d="M 90,295.25 L 180,300.25"
       style="fill:none;fill-rule:evenodd;stroke:#008000;stroke-width:1px;stroke-linecap:butt;stroke-linejoin:miter;stroke-opacity:1"
       id="link_d_24" />
    <path
       d="M 315,300.25 L 180,300.25"
       style="fill:none;fill-rule:evenodd;stroke:#d40000;stroke-width:1px;stroke-linecap:butt;stroke-linejoin:miter;stroke-opacity:1"
       id="link_d_92" />
    <path
       d="M 305,500.25 L 385,410.25"
       style="fill:none;fill-rule:evenodd;stroke:#000080;stroke-width:1px;stroke-linecap:butt;stroke-linejoin:miter;stroke-opacity:1"
       id="link_e_5" />
    <path
       d="M 475,500.25 L 385,410.25"
       style="fill:none;fill-rule:evenodd;stroke:#000080;stroke-width:1px;stroke-linecap:butt;stroke-linejoin:miter;stroke-opacity:1"
       id="link_e_7" />
    <path
       d="M 335,320.25 L 385,410.25"
       style="fill:none;fill-rule:evenodd;stroke:#008000;stroke-width:1px;stroke-linecap:butt;stroke-linejoin:miter;stroke-opacity:1"
       id="link_e_92" />
    <path
       d="M 70,520.25 L 160,510.25"
       style="fill:none;fill-rule:evenodd;stroke:#008000;stroke-width:1px;stroke-linecap:butt;stroke-linejoin:miter;stroke-opacity:1"
       id="link_f_4" />
    <path
       d="M 290,520.25 L 160,510.25"
       style="fill:none;fill-rule:evenodd;stroke:#d40000;stroke-width:1px;stroke-linecap:butt;stroke-linejoin:miter;stroke-opacity:1"
       id="link_f_5" />
  </g>
  <g
     id="bridges">
    <rect
       width="30"
       height="40"
       x="285"
       y="50.25"
       style="fill:#ffffff;fill-opacity:1;fill-rule:evenodd;stroke:#000080;stroke-width:1;stroke-linecap:butt;stroke-linejoin:miter;stroke-miterlimit:4;stroke-dasharray:none;stroke-opacity:1"
       id="bridge_3" />
    <rect
       width="40"
       height="40"
       x="50"
       y="275.25"
       style="fill:#ffffff;fill-opacity:1;stroke:#000000;stroke-width:1;stroke-miterlimit:4;stroke-dasharray:none;stroke-opacity:1"
       id="bridge_24" />
    <rect
       width="40"
       height="40"
       x="315"
       y="280.25"
       style="fill:#ffffff;fill-opacity:1;stroke:#000000;stroke-width:1;stroke-miterlimit:4;stroke-dasharray:none;stroke-opacity:1"
       id="bridge_92" />
    <rect
       width="40"
       height="40"
       x="540"
       y="280.25"
       style="fill:#ffffff;fill-opacity:1;stroke:#000000;stroke-width:1;stroke-miterlimit:4;stroke-dasharray:none;stroke-opacity:1"
       id="bridge_12" />
    <rect
       width="30"
       height="40"
       x="40"
       y="500.25"
       style="fill:#ffffff;fill-opacity:1;fill-rule:evenodd;stroke:#000000;stroke-width:1;stroke-linecap:butt;stroke-linejoin:miter;stroke-miterlimit:4;stroke-dasharray:none;stroke-opacity:1"
       id="bridge_4" />
    <rect
       width="30"
       height="40"
       x="290"
       y="500.25"
       style="fill:#ffffff;fill-opacity:1;fill-rule:evenodd;stroke:#000000;stroke-width:1;stroke-linecap:butt;stroke-linejoin:miter;stroke-miterlimit:4;stroke-dasharray:none;stroke-opacity:1"
       id="bridge_5" />
    <rect
       width="30"
       height="40"
       x="460"
       y="500.25"
       style="fill:#ffffff;fill-opacity:1;fill-rule:evenodd;stroke:#000000;stroke-width:1;stroke-linecap:butt;stroke-linejoin:miter;stroke-miterlimit:4;stroke-dasharray:none;stroke-opacity:1"
       id="bridge_7" />
  </g>
  <g
     id="bridge_labels">
    <path
       d="M 299.47363,62.0127 C 298.98144,62.01271 298.48925,62.07196 297.99707,62.19043 C 297.50488,62.30894 297.02181,62.46389 296.54785,62.65527 C 296.11035,62.83758 295.72981,63.02899 295.40625,63.22949 C 295.08268,63.43003 294.79329,63.61688 294.53809,63.79004 L 294.37402,63.79004 L 294.37402,60.90527 C 294.96647,60.58628 295.77083,60.2969 296.78711,60.03711 C 297.80338,59.77736 298.7718,59.64748 299.69238,59.64746 C 300.61295,59.64748 301.41731,59.74091 302.10547,59.92773 C 302.79361,60.1146 303.41568,60.40399 303.97168,60.7959 C 304.57323,61.23342 305.02668,61.76206 305.33203,62.38184 C 305.63736,63.00165 305.79003,63.72625 305.79004,64.55566 C 305.79003,65.67677 305.42089,66.66115 304.68262,67.50879 C 303.94432,68.35646 303.06021,68.89422 302.03027,69.12207 L 302.03027,69.31348 C 302.45865,69.39552 302.91666,69.53679 303.4043,69.7373 C 303.89192,69.93784 304.34537,70.23406 304.76465,70.62598 C 305.18391,71.01791 305.5257,71.52149 305.79004,72.13672 C 306.05435,72.75196 306.18651,73.50163 306.18652,74.38574 C 306.18651,75.30632 306.02928,76.1517 305.71484,76.92188 C 305.40038,77.69206 304.95604,78.37337 304.38184,78.96582 C 303.78938,79.58561 303.07388,80.05501 302.23535,80.37402 C 301.3968,80.69303 300.44433,80.85254 299.37793,80.85254 C 298.35709,80.85254 297.34537,80.72949 296.34277,80.4834 C 295.34017,80.2373 294.49707,79.94108 293.81348,79.59473 L 293.81348,76.70996 L 294.00488,76.70996 C 294.5791,77.12924 295.34928,77.53028 296.31543,77.91309 C 297.28157,78.2959 298.24772,78.48731 299.21387,78.4873 C 299.76985,78.48731 300.32812,78.39844 300.88867,78.2207 C 301.44921,78.04297 301.91633,77.75358 302.29004,77.35254 C 302.65461,76.9515 302.93261,76.50944 303.12402,76.02637 C 303.31542,75.5433 303.41112,74.93262 303.41113,74.19434 C 303.41112,73.45606 303.30403,72.84994 303.08984,72.37598 C 302.87564,71.90203 302.57714,71.52833 302.19434,71.25488 C 301.81151,70.98145 301.35806,70.79233 300.83398,70.6875 C 300.30989,70.58269 299.74251,70.53028 299.13184,70.53027 L 297.96973,70.53027 L 297.96973,68.26074 L 298.87207,68.26074 C 300.10253,68.26075 301.10286,67.96909 301.87305,67.38574 C 302.64322,66.80242 303.02831,65.95477 303.02832,64.84277 C 303.02831,64.33237 302.92805,63.89259 302.72754,63.52344 C 302.52701,63.15431 302.2718,62.86037 301.96191,62.6416 C 301.61555,62.40464 301.23274,62.24058 300.81348,62.14941 C 300.3942,62.05829 299.94758,62.01271 299.47363,62.0127 L 299.47363,62.0127 z "
       style="font-size:28px;font-style:normal;font-weight:normal;fill:#000080;fill-opacity:1;stroke:none;stroke-width:1px;stroke-linecap:butt;stroke-linejoin:miter;stroke-opacity:1;font-family:Tahoma"
       id="bridge_label_3" />
    <path
       d="M 68.35938,305.64063 L 55.79492,305.64063 L 55.79492,302.7832 C 56.69726,301.92644 57.54948,301.10611 58.35156,300.32227 C 59.15364,299.53841 59.93749,298.72266 60.70313,297.875 C 62.2526,296.17057 63.30989,294.80567 63.875,293.78026 C 64.44009,292.7549 64.72265,291.69533 64.72266,290.60156 C 64.72265,290.03647 64.63378,289.53973 64.45605,289.11133 C 64.27831,288.68295 64.0345,288.32749 63.72461,288.04492 C 63.40559,287.7715 63.03645,287.56642 62.61719,287.42969 C 62.19791,287.29298 61.73762,287.22463 61.23633,287.22461 C 60.75325,287.22463 60.26334,287.28615 59.7666,287.40918 C 59.26985,287.53224 58.79362,287.68491 58.33789,287.86719 C 57.95507,288.02215 57.58593,288.209 57.23047,288.42773 C 56.875,288.6465 56.58789,288.83335 56.36914,288.98827 L 56.21875,288.98827 L 56.21875,286.08983 C 56.78385,285.8073 57.56998,285.5316 58.57715,285.2627 C 59.5843,284.99383 60.53906,284.8594 61.44141,284.85938 C 63.33723,284.8594 64.82291,285.36298 65.89844,286.37012 C 66.97395,287.3773 67.51171,288.7422 67.51172,290.46483 C 67.51171,291.25783 67.41828,291.99155 67.23145,292.66602 C 67.04458,293.34051 66.7871,293.96486 66.45898,294.53906 C 66.12173,295.13152 65.71613,295.7194 65.24219,296.30273 C 64.76822,296.88608 64.26692,297.46029 63.73828,298.02539 C 62.8815,298.95508 61.92675,299.92122 60.87402,300.92383 C 59.82128,301.92644 58.98046,302.7194 58.35156,303.30273 L 68.35938,303.30273 L 68.35938,305.64063 z M 84.20508,298.64063 L 81.78516,298.64063 L 81.78516,305.64063 L 79.16016,305.64063 L 79.16016,298.64063 L 70.16406,298.64063 L 70.16406,295.76952 L 79.26953,285.2832 L 81.78516,285.2832 L 81.78516,296.45313 L 84.20508,296.45313 L 84.20508,298.64063 z M 79.16016,296.45313 L 79.16016,288.49608 L 72.29688,296.45313 L 79.16016,296.45313 z "
       style="font-size:12px;font-style:normal;font-weight:normal;fill:#000000;fill-opacity:1;stroke:none;stroke-width:1px;stroke-linecap:butt;stroke-linejoin:miter;stroke-opacity:1;font-family:Tahoma"
       id="bridge_label_24" />
    <path
       d="M 331.23339,298.45215 C 331.23339,297.06675 331.10578,295.93882 330.85059,295.06836 C 330.59537,294.19794 330.24446,293.52574 329.79786,293.05176 C 329.3968,292.61428 328.99121,292.3135 328.58105,292.14942 C 328.17089,291.98537 327.71971,291.90334 327.22753,291.90332 C 326.10644,291.90334 325.21321,292.30438 324.54786,293.10645 C 323.88248,293.90855 323.5498,295.07066 323.5498,296.59278 C 323.5498,297.44956 323.65918,298.15594 323.87793,298.71192 C 324.09668,299.26792 324.45214,299.74643 324.94434,300.14747 C 325.29069,300.43003 325.68262,300.61915 326.12012,300.71485 C 326.5576,300.81056 327.02701,300.85841 327.52832,300.8584 C 328.11164,300.85841 328.74055,300.75587 329.41503,300.55079 C 330.08951,300.34572 330.6774,300.07456 331.17871,299.73731 C 331.18782,299.6006 331.19921,299.42059 331.21289,299.19727 C 331.22654,298.97397 331.23339,298.7256 331.23339,298.45215 L 331.23339,298.45215 z M 320.77441,296.70215 C 320.77441,295.65399 320.94532,294.69696 321.28711,293.83106 C 321.62891,292.96519 322.09603,292.2178 322.68848,291.58887 C 323.25357,290.98733 323.944,290.51793 324.75977,290.18067 C 325.57552,289.84345 326.40266,289.67483 327.24121,289.67481 C 328.18001,289.67483 329.02994,289.83206 329.79102,290.14649 C 330.55207,290.46096 331.2106,290.91441 331.76661,291.50684 C 332.46842,292.25425 333.01301,293.23407 333.40039,294.44629 C 333.78774,295.65855 333.98142,297.1898 333.98145,299.04004 C 333.98142,300.72625 333.7923,302.32358 333.41407,303.83204 C 333.0358,305.3405 332.47753,306.59148 331.73925,307.58497 C 330.95539,308.64226 330.01432,309.4489 328.91602,310.00489 C 327.81769,310.56088 326.46191,310.83887 324.84863,310.83887 C 324.48405,310.83887 324.09668,310.81836 323.68652,310.77735 C 323.27637,310.73633 322.89355,310.66114 322.53809,310.55176 L 322.53809,307.94043 L 322.6748,307.94043 C 322.90266,308.06804 323.25814,308.19109 323.74121,308.30957 C 324.22428,308.42807 324.71646,308.48731 325.21777,308.48731 C 327.00423,308.48731 328.40787,307.89942 329.42871,306.72364 C 330.44953,305.54786 331.02831,303.86622 331.16503,301.67872 C 330.43587,302.17091 329.74087,302.53094 329.08007,302.75879 C 328.41927,302.98667 327.70149,303.1006 326.92675,303.10059 C 326.17024,303.1006 325.48208,303.01857 324.8623,302.8545 C 324.24251,302.69044 323.61816,302.37143 322.98925,301.89747 C 322.26009,301.34148 321.70866,300.63738 321.33496,299.78516 C 320.96127,298.93296 320.77441,297.90529 320.77441,296.70215 L 320.77441,296.70215 z M 349.22559,310.44239 L 336.66113,310.44239 L 336.66113,307.58497 C 337.56348,306.7282 338.41569,305.90789 339.21777,305.12403 C 340.01986,304.34018 340.80371,303.52443 341.56934,302.67676 C 343.1188,300.97234 344.1761,299.60744 344.74121,298.58204 C 345.3063,297.55666 345.58885,296.49709 345.58887,295.40332 C 345.58885,294.83824 345.49999,294.34149 345.32227,293.91309 C 345.14453,293.48472 344.90071,293.12925 344.59082,292.84668 C 344.2718,292.57326 343.90265,292.36819 343.48339,292.23145 C 343.06412,292.09475 342.60384,292.02639 342.10253,292.02637 C 341.61946,292.02639 341.12955,292.08791 340.63282,292.21094 C 340.13607,292.33401 339.65982,292.48668 339.20411,292.66895 C 338.82128,292.82392 338.45214,293.01076 338.09668,293.2295 C 337.74121,293.44826 337.4541,293.63511 337.23536,293.79004 L 337.08496,293.79004 L 337.08496,290.89161 C 337.65007,290.60907 338.4362,290.33336 339.44336,290.06446 C 340.45052,289.7956 341.40526,289.66116 342.30762,289.66114 C 344.20344,289.66116 345.68912,290.16474 346.76464,291.17188 C 347.84015,292.17906 348.37792,293.54397 348.37793,295.26661 C 348.37792,296.05959 348.28449,296.79331 348.09766,297.46778 C 347.9108,298.14227 347.65331,298.76662 347.3252,299.34082 C 346.98794,299.93328 346.58235,300.52117 346.10839,301.1045 C 345.63442,301.68784 345.13312,302.26206 344.6045,302.82715 C 343.74771,303.75685 342.79296,304.72299 341.74023,305.72559 C 340.6875,306.7282 339.84668,307.52117 339.21777,308.1045 L 349.22559,308.1045 L 349.22559,310.44239 z "
       style="font-size:12px;font-style:normal;font-weight:normal;fill:#000000;fill-opacity:1;stroke:none;stroke-width:1px;stroke-linecap:butt;stroke-linejoin:miter;stroke-opacity:1;font-family:Tahoma"
       id="bridge_label_92" />
    <path
       d="M 556.78711,310.64062 L 546.86133,310.64062 L 546.86133,308.5625 L 550.55273,308.5625 L 550.55273,294.91797 L 546.86133,294.91797 L 546.86133,293.05859 C 548.25585,293.05861 549.28352,292.86037 549.94434,292.46387 C 550.60514,292.0674 550.97655,291.31773 551.05859,290.21484 L 553.17773,290.21484 L 553.17773,308.5625 L 556.78711,308.5625 L 556.78711,310.64062 z M 573.13867,310.64062 L 560.57422,310.64062 L 560.57422,307.7832 C 561.47656,306.92644 562.32877,306.10612 563.13086,305.32227 C 563.93294,304.53842 564.71679,303.72266 565.48242,302.875 C 567.03189,301.17058 568.08918,299.80567 568.6543,298.78027 C 569.21939,297.7549 569.50194,296.69533 569.50195,295.60156 C 569.50194,295.03647 569.41307,294.53973 569.23535,294.11133 C 569.05761,293.68296 568.81379,293.32749 568.50391,293.04492 C 568.18489,292.7715 567.81575,292.56642 567.39648,292.42969 C 566.9772,292.29299 566.51692,292.22463 566.01562,292.22461 C 565.53254,292.22463 565.04264,292.28615 564.5459,292.40918 C 564.04915,292.53224 563.57291,292.68491 563.11719,292.86719 C 562.73437,293.02215 562.36523,293.209 562.00976,293.42773 C 561.65429,293.6465 561.36718,293.83335 561.14844,293.98828 L 560.99805,293.98828 L 560.99805,291.08984 C 561.56315,290.80731 562.34928,290.5316 563.35644,290.2627 C 564.3636,289.99384 565.31835,289.8594 566.2207,289.85937 C 568.11653,289.8594 569.6022,290.36298 570.67773,291.37012 C 571.75324,292.3773 572.291,293.7422 572.29101,295.46484 C 572.291,296.25783 572.19758,296.99155 572.01074,297.66602 C 571.82388,298.34051 571.56639,298.96486 571.23828,299.53906 C 570.90103,300.13152 570.49543,300.71941 570.02148,301.30273 C 569.54751,301.88608 569.04621,302.46029 568.51758,303.02539 C 567.6608,303.95508 566.70605,304.92123 565.65332,305.92383 C 564.60058,306.92644 563.75976,307.7194 563.13086,308.30273 L 573.13867,308.30273 L 573.13867,310.64062 z "
       style="font-size:12px;font-style:normal;font-weight:normal;fill:#000000;fill-opacity:1;stroke:none;stroke-width:1px;stroke-linecap:butt;stroke-linejoin:miter;stroke-opacity:1;font-family:Tahoma"
       id="bridge_label_12" />
    <path
       d="M 481.45996,513.12012 L 472.65527,530.42871 L 469.74316,530.42871 L 479.06738,512.46387 L 468.54004,512.46387 L 468.54004,510.07129 L 481.45996,510.07129 L 481.45996,513.12012 z "
       style="font-size:28px;font-style:normal;font-weight:normal;fill:#000000;fill-opacity:1;stroke:none;stroke-width:1px;stroke-linecap:butt;stroke-linejoin:miter;stroke-opacity:1;font-family:Tahoma"
       id="bridge_label_7" />
    <path
       d="M 62.02051,523.42871 L 59.60059,523.42871 L 59.60059,530.42871 L 56.97559,530.42871 L 56.97559,523.42871 L 47.97949,523.42871 L 47.97949,520.55762 L 57.08496,510.07129 L 59.60059,510.07129 L 59.60059,521.24121 L 62.02051,521.24121 L 62.02051,523.42871 z M 56.97559,521.24121 L 56.97559,513.28418 L 50.1123,521.24121 L 56.97559,521.24121 z "
       style="font-size:28px;font-style:normal;font-variant:normal;font-weight:normal;font-stretch:normal;text-indent:0;text-align:start;text-decoration:none;line-height:normal;letter-spacing:normal;word-spacing:normal;text-transform:none;direction:ltr;block-progression:tb;writing-mode:lr-tb;text-anchor:start;color:#000000;fill:#000000;fill-opacity:1;fill-rule:nonzero;stroke:none;stroke-width:1px;stroke-linecap:butt;stroke-linejoin:miter;marker:none;marker-start:none;marker-mid:none;marker-end:none;stroke-miterlimit:4;stroke-dashoffset:0;stroke-opacity:1;visibility:visible;display:inline;overflow:visible;enable-background:accumulate;font-family:Tahoma"
       id="bridge_label_4" />
    <path
       d="M 311.06348,523.73632 C 311.06346,524.72071 310.90624,525.63216 310.5918,526.47069 C 310.27733,527.30925 309.83755,528.03386 309.27246,528.64453 C 308.69823,529.26432 307.98502,529.75194 307.13281,530.10742 C 306.28059,530.46289 305.32584,530.64062 304.26855,530.64063 C 303.29329,530.64062 302.33398,530.53353 301.39063,530.31934 C 300.44726,530.10514 299.62923,529.82487 298.93652,529.47852 L 298.93652,526.59375 L 299.12793,526.59375 C 299.33756,526.7487 299.63834,526.92416 300.03027,527.12012 C 300.4222,527.31608 300.85514,527.50064 301.3291,527.67382 C 301.86686,527.86523 302.35904,528.01334 302.80566,528.11816 C 303.25227,528.22298 303.75357,528.27539 304.30957,528.27539 C 304.85644,528.27539 305.38964,528.17741 305.90918,527.98145 C 306.4287,527.78548 306.87532,527.46875 307.24902,527.03125 C 307.58625,526.63021 307.84374,526.1608 308.02148,525.62305 C 308.19921,525.08529 308.28807,524.45182 308.28809,523.72266 C 308.28807,523.00261 308.19009,522.41016 307.99414,521.9453 C 307.79817,521.48048 307.51334,521.09767 307.13965,520.79688 C 306.74771,520.45052 306.26692,520.20672 305.69727,520.06543 C 305.1276,519.92416 304.49185,519.85352 303.79004,519.85352 C 303.05175,519.85352 302.30891,519.91048 301.56152,520.02441 C 300.81412,520.13836 300.21712,520.24545 299.77051,520.34569 L 299.77051,509.85938 L 310.94043,509.85938 L 310.94043,512.25194 L 302.40918,512.25194 L 302.40918,517.66602 C 302.7373,517.62956 303.06087,517.60222 303.37988,517.58398 C 303.69889,517.56577 303.99055,517.55665 304.25488,517.55664 C 305.29394,517.55665 306.17349,517.64324 306.89355,517.81641 C 307.6136,517.9896 308.3063,518.32682 308.97168,518.82813 C 309.64615,519.33855 310.1634,519.97657 310.52344,520.74219 C 310.88345,521.50782 311.06346,522.50586 311.06348,523.73632 L 311.06348,523.73632 z "
       style="font-size:28px;font-style:normal;font-weight:normal;fill:#000000;fill-opacity:1;stroke:none;stroke-width:1px;stroke-linecap:butt;stroke-linejoin:miter;stroke-opacity:1;font-family:Tahoma"
       id="bridge_label_5" />
  </g>
  <g
     id="segments">
    <path
       d="M 170.07931,146.12383 C 166.51624,146.27278 162.76142,148.8228 161.23849,153.31744 C 157.82157,148.70571 149.82593,153.11033 152.629,158.74705 C 140.57172,155.35107 132.49261,177.79667 155.6488,176.63717 C 140.87924,188.88042 165.75349,199.75079 176.11878,187.95929 C 176.76944,195.67057 186.94431,196.64586 190.29239,189.76083 C 193.60458,196.01399 203.82577,195.24948 204.94146,185.45717 C 209.35113,190.54665 217.20829,184.09344 213.55094,179.12684 C 219.32154,179.67528 222.10703,171.53206 214.4761,169.84394 C 220.01352,163.85145 210.82773,156.78988 204.94146,161.69952 C 208.15813,153.48681 199.91999,147.44603 192.15558,153.31744 C 193.8624,146.29281 182.78724,142.36821 177.27528,151.27822 C 176.02572,147.62446 173.126,145.99648 170.07931,146.12383 z "
       style="font-size:28px;fill:#ffffff;fill-opacity:1;fill-rule:evenodd;stroke:#000000;stroke-width:1.73383272;stroke-linecap:butt;stroke-linejoin:miter;stroke-miterlimit:4;stroke-dasharray:none;stroke-opacity:1"
       id="segment_a" />
    <path
       d="M 410.07931,156.12383 C 406.51624,156.27278 402.76142,158.8228 401.23849,163.31744 C 397.82157,158.70571 389.82593,163.11033 392.629,168.74705 C 380.57172,165.35107 372.49261,187.79667 395.6488,186.63717 C 380.87924,198.88042 405.75349,209.75079 416.11878,197.95929 C 416.76944,205.67057 426.94431,206.64586 430.29239,199.76083 C 433.60458,206.01399 443.82577,205.24948 444.94146,195.45717 C 449.35113,200.54665 457.20829,194.09344 453.55094,189.12684 C 459.32154,189.67528 462.10703,181.53206 454.4761,179.84394 C 460.01352,173.85145 450.82773,166.78988 444.94146,171.69952 C 448.15813,163.48681 439.91999,157.44603 432.15558,163.31744 C 433.8624,156.29281 422.78724,152.36821 417.27528,161.27822 C 416.02572,157.62446 413.126,155.99648 410.07931,156.12383 z "
       style="font-size:28px;fill:#ffffff;fill-opacity:1;fill-rule:evenodd;stroke:#000000;stroke-width:1.73383272;stroke-linecap:butt;stroke-linejoin:miter;stroke-miterlimit:4;stroke-dasharray:none;stroke-opacity:1"
       id="segment_b" />
    <path
       d="M 40.07931,376.12383 C 36.516241,376.27278 32.761421,378.8228 31.238491,383.31744 C 27.821571,378.70571 19.825931,383.11033 22.629001,388.74705 C 10.571721,385.35107 2.4926111,407.79667 25.648801,406.63717 C 10.879241,418.88042 35.753491,429.75079 46.11878,417.95929 C 46.76944,425.67057 56.94431,426.64586 60.29239,419.76083 C 63.60458,426.01399 73.82577,425.24948 74.94146,415.45717 C 79.35113,420.54665 87.20829,414.09344 83.55094,409.12684 C 89.32154,409.67528 92.10703,401.53206 84.4761,399.84394 C 90.01352,393.85145 80.82773,386.78988 74.94146,391.69952 C 78.15813,383.48681 69.91999,377.44603 62.15558,383.31744 C 63.8624,376.29281 52.78724,372.36821 47.27528,381.27822 C 46.02572,377.62446 43.126,375.99648 40.07931,376.12383 z "
       style="font-size:28px;fill:#ffffff;fill-opacity:1;fill-rule:evenodd;stroke:#000000;stroke-width:1.73383272;stroke-linecap:butt;stroke-linejoin:miter;stroke-miterlimit:4;stroke-dasharray:none;stroke-opacity:1"
       id="segment_c" />
    <path
       d="M 170.07931,276.12383 C 166.51624,276.27278 162.76142,278.8228 161.23849,283.31744 C 157.82157,278.70571 149.82593,283.11033 152.629,288.74705 C 140.57172,285.35107 132.49261,307.79667 155.6488,306.63717 C 140.87924,318.88042 165.75349,329.75079 176.11878,317.95929 C 176.76944,325.67057 186.94431,326.64586 190.29239,319.76083 C 193.60458,326.01399 203.82577,325.24948 204.94146,315.45717 C 209.35113,320.54665 217.20829,314.09344 213.55094,309.12684 C 219.32154,309.67528 222.10703,301.53206 214.4761,299.84394 C 220.01352,293.85145 210.82773,286.78988 204.94146,291.69952 C 208.15813,283.48681 199.91999,277.44603 192.15558,283.31744 C 193.8624,276.29281 182.78724,272.36821 177.27528,281.27822 C 176.02572,277.62446 173.126,275.99648 170.07931,276.12383 z "
       style="font-size:28px;fill:#ffffff;fill-opacity:1;fill-rule:evenodd;stroke:#000000;stroke-width:1.73383272;stroke-linecap:butt;stroke-linejoin:miter;stroke-miterlimit:4;stroke-dasharray:none;stroke-opacity:1"
       id="segment_d" />
    <path
       d="M 370.07931,386.12383 C 366.51624,386.27278 362.76142,388.8228 361.23849,393.31744 C 357.82157,388.70571 349.82593,393.11033 352.629,398.74705 C 340.57172,395.35107 332.49261,417.79667 355.6488,416.63717 C 340.87924,428.88042 365.75349,439.75079 376.11878,427.95929 C 376.76944,435.67057 386.94431,436.64586 390.29239,429.76083 C 393.60458,436.01399 403.82577,435.24948 404.94146,425.45717 C 409.35113,430.54665 417.20829,424.09344 413.55094,419.12684 C 419.32154,419.67528 422.10703,411.53206 414.4761,409.84394 C 420.01352,403.85145 410.82773,396.78988 404.94146,401.69952 C 408.15813,393.48681 399.91999,387.44603 392.15558,393.31744 C 393.8624,386.29281 382.78724,382.36821 377.27528,391.27822 C 376.02572,387.62446 373.126,385.99648 370.07931,386.12383 z "
       style="font-size:28px;fill:#ffffff;fill-opacity:1;fill-rule:evenodd;stroke:#000000;stroke-width:1.73383272;stroke-linecap:butt;stroke-linejoin:miter;stroke-miterlimit:4;stroke-dasharray:none;stroke-opacity:1"
       id="segment_e" />
    <path
       d="M 154.29645,486.54013 C 150.73338,486.68908 146.97856,489.2391 145.45563,493.73374 C 142.03871,489.12201 134.04307,493.52663 136.84614,499.16335 C 124.78886,495.76737 116.70975,518.21297 139.86594,517.05347 C 125.09638,529.29672 149.97063,540.16709 160.33592,528.37559 C 160.98658,536.08687 171.16145,537.06216 174.50953,530.17713 C 177.82172,536.43029 188.04291,535.66578 189.1586,525.87347 C 193.56827,530.96295 201.42543,524.50974 197.76808,519.54314 C 203.53868,520.09158 206.32417,511.94836 198.69324,510.26024 C 204.23066,504.26775 195.04487,497.20618 189.1586,502.11582 C 192.37527,493.90311 184.13713,487.86233 176.37272,493.73374 C 178.07954,486.70911 167.00438,482.78451 161.49242,491.69452 C 160.24286,488.04076 157.34314,486.41278 154.29645,486.54013 z "
       style="font-size:28px;fill:#ffffff;fill-opacity:1;fill-rule:evenodd;stroke:#000000;stroke-width:1.73383272;stroke-linecap:butt;stroke-linejoin:miter;stroke-miterlimit:4;stroke-dasharray:none;stroke-opacity:1"
       id="segment_f" />
  </g>
  <g
     id="segment_labels">
    <path
       d="M 183.52049,174.09892 L 183.52049,169.86064 C 182.90981,169.91534 182.13735,169.99053 181.20311,170.08623 C 180.26886,170.18194 179.51463,170.31638 178.94041,170.48955 C 178.25682,170.69919 177.69171,171.02048 177.2451,171.45341 C 176.79848,171.88636 176.57518,172.4902 176.57518,173.26494 C 176.57518,174.13994 176.82127,174.80075 177.31346,175.24736 C 177.80564,175.69398 178.5257,175.91728 179.47362,175.91728 C 180.28481,175.91728 181.01853,175.74183 181.67479,175.39091 C 182.33103,175.04001 182.94626,174.60934 183.52049,174.09892 L 183.52049,174.09892 z M 183.52049,176.23174 C 183.31085,176.38668 183.03057,176.60316 182.67967,176.88115 C 182.32875,177.15914 181.98923,177.38017 181.66112,177.54424 C 181.20538,177.78121 180.7656,177.96351 180.34178,178.09111 C 179.91795,178.21871 179.32322,178.28252 178.5576,178.28252 C 177.92869,178.28252 177.33169,178.16403 176.76659,177.92705 C 176.20148,177.69007 175.70473,177.35739 175.27635,176.929 C 174.86619,176.50973 174.53807,175.99248 174.29198,175.37724 C 174.04588,174.76201 173.92284,174.1126 173.92284,173.429 C 173.92284,172.37171 174.14614,171.47165 174.59276,170.72881 C 175.03937,169.98597 175.74575,169.39581 176.7119,168.9583 C 177.56867,168.56638 178.58038,168.29522 179.74706,168.14482 C 180.91371,167.99444 182.17153,167.88279 183.52049,167.80986 L 183.52049,167.31767 C 183.52048,166.71612 183.42934,166.23077 183.24706,165.86162 C 183.06475,165.49249 182.80955,165.20766 182.48143,165.00713 C 182.1533,164.7975 181.75225,164.65851 181.27831,164.59013 C 180.80434,164.52179 180.31671,164.48761 179.81541,164.48759 C 179.22296,164.48761 178.5257,164.57648 177.72362,164.7542 C 176.92153,164.93194 176.11945,165.18943 175.31737,165.52666 L 175.16698,165.52666 L 175.16698,162.91533 C 175.64093,162.77863 176.31997,162.62823 177.20409,162.46416 C 178.0882,162.30011 178.9632,162.21808 179.82909,162.21806 C 180.87726,162.21808 181.76137,162.30011 182.48143,162.46416 C 183.20147,162.62823 183.84861,162.92446 184.42284,163.35283 C 184.97881,163.77211 185.39353,164.31443 185.66698,164.97978 C 185.9404,165.64516 186.07712,166.45636 186.07713,167.41338 L 186.07713,177.85869 L 183.52049,177.85869 L 183.52049,176.23174 z "
       style="font-size:28px;font-style:normal;font-weight:normal;fill:#000000;fill-opacity:1;stroke:none;stroke-width:1px;stroke-linecap:butt;stroke-linejoin:miter;stroke-opacity:1;font-family:Tahoma"
       id="segment_label_a" />
    <path
       d="M 423.75293,182.99121 C 423.75292,181.1683 423.47492,179.78517 422.91895,178.8418 C 422.36295,177.89845 421.46972,177.42677 420.23926,177.42676 C 419.53743,177.42677 418.82877,177.59083 418.11328,177.91895 C 417.39778,178.24708 416.74837,178.6618 416.16504,179.16309 L 416.16504,187.91309 C 416.81217,188.2321 417.38639,188.45768 417.8877,188.58984 C 418.38899,188.72201 418.94042,188.78809 419.54199,188.78809 C 420.85448,188.78809 421.88443,188.32324 422.63184,187.39355 C 423.37922,186.46387 423.75292,184.99642 423.75293,182.99121 L 423.75293,182.99121 z M 426.40527,182.78613 C 426.40526,185.28353 425.79914,187.2933 424.58691,188.81543 C 423.37466,190.33757 421.85709,191.09863 420.03418,191.09863 C 419.20475,191.09863 418.49609,190.99609 417.9082,190.79102 C 417.32031,190.58594 416.73925,190.31022 416.16504,189.96387 L 416.00098,190.6748 L 413.59473,190.6748 L 413.59473,169.40137 L 416.16504,169.40137 L 416.16504,177.00293 C 416.81217,176.41961 417.51399,175.93654 418.27051,175.55371 C 419.02701,175.17091 419.88378,174.97951 420.84082,174.97949 C 422.56347,174.97951 423.92154,175.66994 424.91504,177.05078 C 425.90851,178.43165 426.40526,180.34343 426.40527,182.78613 L 426.40527,182.78613 z "
       style="font-size:28px;font-style:normal;font-weight:normal;fill:#000000;fill-opacity:1;stroke:none;stroke-width:1px;stroke-linecap:butt;stroke-linejoin:miter;stroke-opacity:1;font-family:Tahoma"
       id="segment_label_b" />
    <path
       d="M 51.30566,408.23438 C 50.25748,408.23437 49.29589,408.07259 48.4209,407.74902 C 47.54589,407.42546 46.79394,406.93555 46.16504,406.2793 C 45.53613,405.62305 45.0485,404.7959 44.70215,403.79785 C 44.35579,402.79981 44.18262,401.62631 44.18262,400.27734 C 44.18262,398.93751 44.36263,397.77996 44.72266,396.80469 C 45.08268,395.82944 45.56347,395.00913 46.16504,394.34375 C 46.7666,393.6784 47.51627,393.1657 48.41406,392.80566 C 49.31184,392.44565 50.27571,392.26564 51.30566,392.26563 C 52.1442,392.26564 52.95312,392.38413 53.73242,392.62109 C 54.51171,392.85809 55.20669,393.13153 55.81738,393.44141 L 55.81738,396.32617 L 55.66699,396.32617 C 55.48469,396.17124 55.24999,395.9935 54.96289,395.79297 C 54.67577,395.59246 54.32714,395.38738 53.91699,395.17773 C 53.56151,394.99546 53.14224,394.83595 52.65918,394.69922 C 52.1761,394.56251 51.71125,394.49415 51.26465,394.49414 C 49.93391,394.49415 48.86523,394.99773 48.05859,396.00488 C 47.25195,397.01206 46.84863,398.43621 46.84863,400.27734 C 46.84863,402.08204 47.23828,403.48796 48.01758,404.49512 C 48.79687,405.50228 49.87923,406.00586 51.26465,406.00586 C 52.10318,406.00586 52.90071,405.83268 53.65723,405.48633 C 54.41373,405.13998 55.08365,404.69336 55.66699,404.14648 L 55.81738,404.14648 L 55.81738,407.03125 C 55.56216,407.14974 55.24315,407.29329 54.86035,407.46191 C 54.47753,407.63053 54.13117,407.75586 53.82129,407.83789 C 53.38378,407.96549 52.99185,408.06348 52.64551,408.13184 C 52.29914,408.2002 51.85253,408.23437 51.30566,408.23438 L 51.30566,408.23438 z "
       style="font-size:28px;font-style:normal;font-weight:normal;fill:#000000;fill-opacity:1;stroke:none;stroke-width:1px;stroke-linecap:butt;stroke-linejoin:miter;stroke-opacity:1;font-family:Tahoma"
       id="segment_label_c" />
    <path
       d="M 186.40527,310.6748 L 183.83496,310.6748 L 183.83496,309.11621 C 183.43391,309.45345 183.08755,309.73145 182.7959,309.9502 C 182.50422,310.16895 182.16243,310.36947 181.77051,310.55176 C 181.40592,310.72493 181.02766,310.85937 180.63574,310.95508 C 180.24381,311.05078 179.78808,311.09863 179.26855,311.09863 C 178.43912,311.09863 177.67122,310.92546 176.96484,310.5791 C 176.25846,310.23275 175.65918,309.72689 175.16699,309.06152 C 174.66569,308.38705 174.27832,307.55534 174.00488,306.56641 C 173.73144,305.57748 173.59473,304.44044 173.59473,303.15527 C 173.59473,301.81544 173.7679,300.65561 174.11426,299.67578 C 174.46061,298.69598 174.93913,297.84148 175.5498,297.1123 C 176.10579,296.44695 176.77799,295.92514 177.56641,295.54688 C 178.35481,295.16864 179.18196,294.97951 180.04785,294.97949 C 180.81347,294.97951 181.47883,295.06382 182.04395,295.23242 C 182.60904,295.40106 183.20604,295.6631 183.83496,296.01855 L 183.83496,289.40137 L 186.40527,289.40137 L 186.40527,310.6748 z M 183.83496,306.95605 L 183.83496,298.15137 C 183.19693,297.84148 182.62499,297.62729 182.11914,297.50879 C 181.61327,297.39031 181.06412,297.33107 180.47168,297.33105 C 179.15006,297.33107 178.11555,297.82553 177.36816,298.81445 C 176.62076,299.8034 176.24707,301.23211 176.24707,303.10059 C 176.24707,304.89616 176.53418,306.27019 177.1084,307.22266 C 177.68261,308.17513 178.60318,308.65137 179.87012,308.65137 C 180.54459,308.65137 181.22362,308.4987 181.90723,308.19336 C 182.59081,307.88802 183.23339,307.47559 183.83496,306.95605 L 183.83496,306.95605 z "
       style="font-size:28px;font-style:normal;font-weight:normal;fill:#000000;fill-opacity:1;stroke:none;stroke-width:1px;stroke-linecap:butt;stroke-linejoin:miter;stroke-opacity:1;font-family:Tahoma"
       id="segment_label_d" />
    <path
       d="M 381.08691,418.27539 C 378.65331,418.27539 376.76432,417.58952 375.41992,416.21777 C 374.07552,414.84603 373.40332,412.89779 373.40332,410.37305 C 373.40332,407.88478 374.05501,405.90463 375.3584,404.43262 C 376.66178,402.96063 378.36621,402.22463 380.47168,402.22461 C 381.41959,402.22463 382.25813,402.36134 382.9873,402.63477 C 383.71646,402.90822 384.35448,403.3366 384.90137,403.91992 C 385.44823,404.50327 385.8675,405.21648 386.15918,406.05957 C 386.45083,406.90268 386.59667,407.93491 386.59668,409.15625 L 386.59668,410.55078 L 376.01465,410.55078 C 376.01465,412.32813 376.46126,413.6862 377.35449,414.625 C 378.24772,415.5638 379.48274,416.03321 381.05957,416.0332 C 381.62467,416.03321 382.17838,415.9694 382.7207,415.8418 C 383.26301,415.71419 383.75292,415.55013 384.19043,415.34961 C 384.65526,415.13998 385.04719,414.93718 385.36621,414.74121 C 385.68521,414.54525 385.94953,414.36068 386.15918,414.1875 L 386.30957,414.1875 L 386.30957,416.99023 C 386.00878,417.10872 385.63508,417.25684 385.18848,417.43457 C 384.74185,417.6123 384.34081,417.7513 383.98535,417.85156 C 383.48404,417.98828 383.03059,418.0931 382.625,418.16602 C 382.21939,418.23893 381.7067,418.27539 381.08691,418.27539 L 381.08691,418.27539 z M 384.09473,408.58203 C 384.07649,407.88933 383.99445,407.29233 383.84863,406.79102 C 383.70279,406.28973 383.49315,405.8659 383.21973,405.51953 C 382.91893,405.13673 382.53384,404.84507 382.06445,404.64453 C 381.59504,404.44402 381.01399,404.34376 380.32129,404.34375 C 379.63769,404.34376 379.05663,404.4463 378.57813,404.65137 C 378.0996,404.85646 377.66438,405.15496 377.27246,405.54688 C 376.88964,405.94793 376.59798,406.39226 376.39746,406.87988 C 376.19694,407.36752 376.06933,407.93491 376.01465,408.58203 L 384.09473,408.58203 z "
       style="font-size:28px;font-style:normal;font-weight:normal;fill:#000000;fill-opacity:1;stroke:none;stroke-width:1px;stroke-linecap:butt;stroke-linejoin:miter;stroke-opacity:1;font-family:Tahoma"
       id="segment_label_e" />
    <path
       d="M 168.96811,502.55886 L 168.83139,502.55886 C 168.60352,502.47685 168.27539,502.3971 167.84702,502.31961 C 167.41862,502.24215 167.03581,502.20341 166.69858,502.20339 C 165.61394,502.20341 164.84148,502.44723 164.3812,502.93484 C 163.9209,503.42249 163.69076,504.30432 163.69077,505.58035 L 163.69077,506.09988 L 167.94272,506.09988 L 167.94272,508.23269 L 163.7728,508.23269 L 163.7728,521.37136 L 161.20248,521.37136 L 161.20248,508.23269 L 159.46616,508.23269 L 159.46616,506.09988 L 161.20248,506.09988 L 161.20248,505.59402 C 161.20248,503.75289 161.64454,502.3538 162.52866,501.39675 C 163.41277,500.43974 164.67969,499.96123 166.32944,499.96121 C 166.80339,499.96123 167.26823,499.98629 167.72397,500.0364 C 168.17969,500.08655 168.5944,500.14352 168.96811,500.2073 L 168.96811,502.55886 z "
       style="font-size:28px;font-style:normal;font-weight:normal;fill:#000000;fill-opacity:1;stroke:none;stroke-width:1px;stroke-linecap:butt;stroke-linejoin:miter;stroke-opacity:1;font-family:Tahoma"
       id="segment_label_f" />
  </g>
  <path
     d="M 253.26172,20.542969 L 250.25,20.542969 L 244.71875,13.605469 L 242.07031,13.605469 L 242.07031,20.542969 L 239.75,20.542969 L 239.75,3.09375 L 244.25,3.09375 C 245.24999,3.0937674 246.08788,3.1484549 246.76367,3.2578125 C 247.43944,3.3672047 248.08202,3.6211107 248.69141,4.0195313 C 249.30077,4.4101724 249.78319,4.9140781 250.13867,5.53125 C 250.49413,6.1484519 250.67186,6.9140761 250.67188,7.828125 C 250.67186,9.1093864 250.34764,10.179698 249.69922,11.039063 C 249.05077,11.898446 248.16796,12.535164 247.05078,12.949219 L 253.26172,20.542969 z M 248.24609,8.0039063 C 248.24608,7.4961068 248.15624,7.0449354 247.97656,6.6503906 C 247.79687,6.2558737 247.51952,5.9336084 247.14453,5.6835938 C 246.8164,5.4648588 246.43359,5.3105621 245.99609,5.2207031 C 245.55859,5.1308748 245.01562,5.085953 244.36719,5.0859375 L 242.07031,5.0859375 L 242.07031,11.671875 L 244.10938,11.671875 C 244.77343,11.671884 245.37109,11.61329 245.90234,11.496094 C 246.43359,11.378915 246.88671,11.136728 247.26172,10.769531 C 247.59765,10.441416 247.84569,10.050792 248.00586,9.5976563 C 248.16601,9.1445426 248.24608,8.6132932 248.24609,8.0039063 L 248.24609,8.0039063 z M 265.25,14.003906 C 265.24999,16.207036 264.71874,17.908206 263.65625,19.107422 C 262.59374,20.306641 261.17968,20.90625 259.41406,20.90625 C 257.59375,20.90625 256.16211,20.28711 255.11914,19.048828 C 254.07617,17.81055 253.55469,16.128911 253.55469,14.003906 C 253.55469,11.816415 254.0918,10.117198 255.16602,8.90625 C 256.24023,7.6953253 257.65625,7.0898572 259.41406,7.0898438 C 261.17968,7.0898572 262.59374,7.6933722 263.65625,8.9003906 C 264.71874,10.107432 265.24999,11.808602 265.25,14.003906 L 265.25,14.003906 z M 262.97656,14.003906 C 262.97655,12.308602 262.66796,11.048838 262.05078,10.224609 C 261.43359,9.4004018 260.55468,8.9882928 259.41406,8.9882813 C 258.26562,8.9882928 257.38085,9.4004018 256.75977,10.224609 C 256.13867,11.048838 255.82812,12.308602 255.82813,14.003906 C 255.82812,15.644536 256.13867,16.888676 256.75977,17.736328 C 257.38085,18.583986 258.26562,19.007814 259.41406,19.007813 C 260.54687,19.007814 261.42382,18.591799 262.04492,17.759766 C 262.66601,16.927738 262.97655,15.675786 262.97656,14.003906 L 262.97656,14.003906 z M 278.28125,14.003906 C 278.28124,16.207036 277.74999,17.908206 276.6875,19.107422 C 275.62499,20.306641 274.21093,20.90625 272.44531,20.90625 C 270.625,20.90625 269.19336,20.28711 268.15039,19.048828 C 267.10742,17.81055 266.58594,16.128911 266.58594,14.003906 C 266.58594,11.816415 267.12305,10.117198 268.19727,8.90625 C 269.27148,7.6953253 270.6875,7.0898572 272.44531,7.0898438 C 274.21093,7.0898572 275.62499,7.6933722 276.6875,8.9003906 C 277.74999,10.107432 278.28124,11.808602 278.28125,14.003906 L 278.28125,14.003906 z M 276.00781,14.003906 C 276.0078,12.308602 275.69921,11.048838 275.08203,10.224609 C 274.46484,9.4004018 273.58593,8.9882928 272.44531,8.9882813 C 271.29687,8.9882928 270.4121,9.4004018 269.79102,10.224609 C 269.16992,11.048838 268.85937,12.308602 268.85938,14.003906 C 268.85937,15.644536 269.16992,16.888676 269.79102,17.736328 C 270.4121,18.583986 271.29687,19.007814 272.44531,19.007813 C 273.57812,19.007814 274.45507,18.591799 275.07617,17.759766 C 275.69726,16.927738 276.0078,15.675786 276.00781,14.003906 L 276.00781,14.003906 z M 284.50391,20.800781 C 283.30078,20.800781 282.36328,20.458984 281.69141,19.775391 C 281.01953,19.091798 280.68359,18.011721 280.68359,16.535156 L 280.68359,9.28125 L 279.19531,9.28125 L 279.19531,7.453125 L 280.68359,7.453125 L 280.68359,3.6914063 L 282.88672,3.6914063 L 282.88672,7.453125 L 286.94141,7.453125 L 286.94141,9.28125 L 282.88672,9.28125 L 282.88672,15.503906 C 282.88671,16.167973 282.89843,16.679691 282.92188,17.039063 C 282.94531,17.398441 283.03515,17.734378 283.19141,18.046875 C 283.32421,18.320315 283.53906,18.525393 283.83594,18.662109 C 284.13281,18.79883 284.53515,18.867189 285.04297,18.867188 C 285.40234,18.867189 285.74999,18.814455 286.08594,18.708984 C 286.42187,18.603518 286.66405,18.515627 286.8125,18.445313 L 286.94141,18.445313 L 286.94141,20.425781 C 286.52734,20.542969 286.10741,20.634766 285.68164,20.701172 C 285.25585,20.767578 284.86328,20.800781 284.50391,20.800781 L 284.50391,20.800781 z M 304.76563,13.957031 C 304.76561,12.394539 304.52733,11.208994 304.05078,10.400391 C 303.57421,9.5918078 302.80859,9.1875114 301.75391,9.1875 C 301.15234,9.1875114 300.54492,9.3281362 299.93164,9.609375 C 299.31835,9.8906357 298.76171,10.246104 298.26172,10.675781 L 298.26172,18.175781 C 298.8164,18.449221 299.30859,18.64258 299.73828,18.755859 C 300.16796,18.869142 300.64062,18.925783 301.15625,18.925781 C 302.28124,18.925783 303.16405,18.527346 303.80469,17.730469 C 304.4453,16.933597 304.76561,15.675786 304.76563,13.957031 L 304.76563,13.957031 z M 307.03906,13.78125 C 307.03905,15.92188 306.51952,17.644534 305.48047,18.949219 C 304.4414,20.253907 303.14062,20.90625 301.57813,20.90625 C 300.86718,20.90625 300.25976,20.818359 299.75586,20.642578 C 299.25195,20.466797 298.7539,20.230469 298.26172,19.933594 L 298.12109,20.542969 L 296.05859,20.542969 L 296.05859,2.3085938 L 298.26172,2.3085938 L 298.26172,8.8242188 C 298.8164,8.324231 299.41796,7.9101689 300.06641,7.5820313 C 300.71484,7.2539195 301.44921,7.0898572 302.26953,7.0898438 C 303.74608,7.0898572 304.91015,7.6816535 305.76172,8.8652344 C 306.61327,10.048839 307.03905,11.687509 307.03906,13.78125 L 307.03906,13.78125 z M 316.26172,9.8203125 L 316.14453,9.8203125 C 315.98046,9.7734483 315.80663,9.7441514 315.62305,9.7324219 C 315.43945,9.7207139 315.21874,9.7148546 314.96094,9.7148438 C 314.36718,9.7148546 313.77734,9.8437607 313.19141,10.101563 C 312.60546,10.359385 312.05078,10.742197 311.52734,11.25 L 311.52734,20.542969 L 309.32422,20.542969 L 309.32422,7.453125 L 311.52734,7.453125 L 311.52734,9.3984375 C 312.33203,8.6875119 313.0332,8.1855592 313.63086,7.8925781 C 314.22851,7.5996223 314.80859,7.4531381 315.37109,7.453125 C 315.59765,7.4531381 315.76757,7.4589975 315.88086,7.4707031 C 315.99413,7.4824349 316.12109,7.500013 316.26172,7.5234375 L 316.26172,9.8203125 z M 320.24609,20.542969 L 318.04297,20.542969 L 318.04297,7.453125 L 320.24609,7.453125 L 320.24609,20.542969 z M 320.39844,5.2617188 L 317.89063,5.2617188 L 317.89063,2.9765625 L 320.39844,2.9765625 L 320.39844,5.2617188 z M 333.55859,20.542969 L 331.35547,20.542969 L 331.35547,19.207031 C 331.01171,19.496095 330.71483,19.734376 330.46484,19.921875 C 330.21484,20.109375 329.92187,20.28125 329.58594,20.4375 C 329.27343,20.585937 328.94921,20.701172 328.61328,20.783203 C 328.27734,20.865234 327.88671,20.90625 327.44141,20.90625 C 326.73046,20.90625 326.07226,20.757812 325.4668,20.460938 C 324.86133,20.164063 324.34765,19.73047 323.92578,19.160156 C 323.49609,18.582033 323.16406,17.869143 322.92969,17.021484 C 322.69531,16.173832 322.57812,15.199224 322.57813,14.097656 C 322.57812,12.949226 322.72656,11.955087 323.02344,11.115234 C 323.32031,10.275401 323.73047,9.5429798 324.25391,8.9179688 C 324.73047,8.3476684 325.30664,7.9004033 325.98242,7.5761719 C 326.6582,7.2519664 327.36718,7.0898572 328.10938,7.0898438 C 328.76562,7.0898572 329.33593,7.1621228 329.82031,7.3066406 C 330.30468,7.451185 330.8164,7.6757941 331.35547,7.9804688 L 331.35547,2.3085938 L 333.55859,2.3085938 L 333.55859,20.542969 z M 331.35547,17.355469 L 331.35547,9.8085938 C 330.80858,9.5429798 330.31835,9.3593862 329.88477,9.2578125 C 329.45116,9.1562614 328.98046,9.1054802 328.47266,9.1054688 C 327.33984,9.1054802 326.45312,9.5293079 325.8125,10.376953 C 325.17187,11.224619 324.85156,12.449227 324.85156,14.050781 C 324.85156,15.589849 325.09765,16.767582 325.58984,17.583984 C 326.08203,18.400393 326.87109,18.808595 327.95703,18.808594 C 328.53515,18.808595 329.11718,18.677736 329.70313,18.416016 C 330.28905,18.154299 330.83983,17.800784 331.35547,17.355469 L 331.35547,17.355469 z M 344.62109,16.992188 L 344.62109,9.8085938 C 344.07421,9.5429798 343.56835,9.3535268 343.10352,9.2402344 C 342.63866,9.1269645 342.17577,9.070324 341.71484,9.0703125 C 340.59765,9.070324 339.71875,9.4804798 339.07813,10.300781 C 338.4375,11.121103 338.11718,12.296883 338.11719,13.828125 C 338.11718,15.281255 338.36132,16.386723 338.84961,17.144531 C 339.33789,17.902346 340.1289,18.281252 341.22266,18.28125 C 341.79296,18.281252 342.38085,18.167971 342.98633,17.941406 C 343.59179,17.714847 344.13671,17.398441 344.62109,16.992188 L 344.62109,16.992188 z M 337.21484,22.640625 C 337.36328,22.703123 337.58203,22.787107 337.87109,22.892578 C 338.16015,22.998044 338.48828,23.097654 338.85547,23.191406 C 339.26171,23.292966 339.63671,23.374997 339.98047,23.4375 C 340.32421,23.499997 340.69921,23.531247 341.10547,23.53125 C 341.78515,23.531247 342.36132,23.441403 342.83398,23.261719 C 343.30663,23.082029 343.67577,22.832029 343.94141,22.511719 C 344.1914,22.191405 344.36718,21.820311 344.46875,21.398438 C 344.5703,20.976562 344.62108,20.496094 344.62109,19.957031 L 344.62109,18.808594 C 344.02733,19.32422 343.4453,19.705079 342.875,19.951172 C 342.30468,20.197266 341.58984,20.320313 340.73047,20.320313 C 339.23828,20.320313 338.05078,19.765626 337.16797,18.65625 C 336.28516,17.546878 335.84375,15.95313 335.84375,13.875 C 335.84375,12.78907 335.99609,11.826181 336.30078,10.986328 C 336.60547,10.146495 337.01562,9.4336049 337.53125,8.8476563 C 338.02343,8.2851685 338.60547,7.8515752 339.27734,7.546875 C 339.94921,7.2422008 340.64453,7.0898572 341.36328,7.0898438 C 342.04296,7.0898572 342.63085,7.1699352 343.12695,7.3300781 C 343.62304,7.4902474 344.12108,7.7187628 344.62109,8.015625 L 344.75,7.453125 L 346.82422,7.453125 L 346.82422,19.054688 C 346.82421,21.273437 346.33983,22.902341 345.37109,23.941406 C 344.40233,24.980464 342.92187,25.499995 340.92969,25.5 C 340.28906,25.499995 339.63476,25.449214 338.9668,25.347656 C 338.29882,25.246089 337.67578,25.10937 337.09766,24.9375 L 337.09766,22.640625 L 337.21484,22.640625 z M 355.69531,20.847656 C 353.60937,20.847656 351.99023,20.259766 350.83789,19.083984 C 349.68555,17.908206 349.10937,16.238286 349.10938,14.074219 C 349.10937,11.941415 349.66797,10.244151 350.78516,8.9824219 C 351.90234,7.7207159 353.36328,7.0898572 355.16797,7.0898438 C 355.98046,7.0898572 356.69921,7.2070446 357.32422,7.4414063 C 357.94921,7.6757941 358.49608,8.0429813 358.96484,8.5429688 C 359.43358,9.0429802 359.79296,9.6543078 360.04297,10.376953 C 360.29296,11.099619 360.41796,11.984384 360.41797,13.03125 L 360.41797,14.226563 L 351.34766,14.226563 C 351.34765,15.750005 351.73047,16.914066 352.49609,17.71875 C 353.26171,18.52344 354.32031,18.925783 355.67188,18.925781 C 356.15624,18.925783 356.63085,18.871095 357.0957,18.761719 C 357.56054,18.652346 357.98046,18.511721 358.35547,18.339844 C 358.7539,18.160159 359.08983,17.986331 359.36328,17.818359 C 359.63671,17.650394 359.86327,17.492191 360.04297,17.34375 L 360.17188,17.34375 L 360.17188,19.746094 C 359.91405,19.847657 359.59374,19.97461 359.21094,20.126953 C 358.82811,20.279297 358.48436,20.398438 358.17969,20.484375 C 357.74999,20.601562 357.36132,20.691406 357.01367,20.753906 C 356.66601,20.816406 356.22655,20.847656 355.69531,20.847656 L 355.69531,20.847656 z M 358.27344,12.539063 C 358.2578,11.945321 358.18749,11.433603 358.0625,11.003906 C 357.93749,10.574229 357.7578,10.210948 357.52344,9.9140625 C 357.26562,9.5859485 356.93554,9.3359487 356.5332,9.1640625 C 356.13085,8.9921991 355.63281,8.9062616 355.03906,8.90625 C 354.45312,8.9062616 353.95507,8.9941522 353.54492,9.1699219 C 353.13476,9.3457143 352.76171,9.6015734 352.42578,9.9375 C 352.09765,10.28126 351.84765,10.662119 351.67578,11.080078 C 351.5039,11.498056 351.39453,11.984384 351.34766,12.539063 L 358.27344,12.539063 z "
     style="font-size:28px;font-style:normal;font-weight:normal;fill:#000080;fill-opacity:1;stroke:none;stroke-width:1px;stroke-linecap:butt;stroke-linejoin:miter;stroke-opacity:1;font-family:Tahoma"
     id="root_bridge" />
  <g
     style="fill:#000080;fill-opacity:1"
     id="arrow">
    <path
       d="M 299.09375,25.5 L 299.09375,45.5 L 301.09375,45.5 L 301.09375,25.5 L 299.09375,25.5 z "
       style="fill:#000080;fill-opacity:1;fill-rule:evenodd;stroke:none;stroke-width:2;stroke-linecap:butt;stroke-linejoin:miter;stroke-miterlimit:4;stroke-dasharray:none;stroke-opacity:1"
       id="arrow_line" />
    <path
       d="M 304.92447,35.037695 L 300.10321,48.148747 L 295.28194,35.037694 C 298.12841,37.132292 302.02288,37.120223 304.92447,35.037695 z "
       style="font-size:12px;fill:#000080;fill-opacity:1;fill-rule:evenodd;stroke-width:0.625;stroke-linejoin:round"
       id="arrow_head" />
  </g>
  <g
     id="root_ports">
    <path
       d="M 66.259766,270.5 L 63.75,270.5 L 59.140625,264.71875 L 56.933594,264.71875 L 56.933594,270.5 L 55,270.5 L 55,255.95898 L 58.75,255.95898 C 59.583327,255.959 60.281569,256.00457 60.844727,256.0957 C 61.40787,256.18686 61.943351,256.39845 62.451172,256.73047 C 62.958975,257.056 63.360993,257.47592 63.657227,257.99023 C 63.95344,258.50457 64.101552,259.14259 64.101563,259.9043 C 64.101552,260.97201 63.83137,261.86394 63.291016,262.58008 C 62.750642,263.29623 62.014965,263.82683 61.083984,264.17188 L 66.259766,270.5 z M 62.080078,260.05078 C 62.08007,259.62762 62.0052,259.25164 61.855469,258.92285 C 61.705721,258.59409 61.474601,258.32553 61.162109,258.11719 C 60.888665,257.93491 60.569654,257.80633 60.205078,257.73145 C 59.840488,257.65659 59.388015,257.61915 58.847656,257.61914 L 56.933594,257.61914 L 56.933594,263.10742 L 58.632813,263.10742 C 59.186192,263.10743 59.684239,263.0586 60.126953,262.96094 C 60.569654,262.86329 60.947258,262.66147 61.259766,262.35547 C 61.539706,262.08204 61.746411,261.75652 61.879883,261.37891 C 62.013338,261.00131 62.08007,260.5586 62.080078,260.05078 L 62.080078,260.05078 z M 76.601563,260.34375 C 76.601552,260.97527 76.489247,261.5726 76.264648,262.13574 C 76.040029,262.6989 75.729157,263.17904 75.332031,263.57617 C 74.83072,264.07097 74.241528,264.44532 73.564453,264.69922 C 72.887363,264.95313 72.031244,265.08008 70.996094,265.08008 L 69.355469,265.08008 L 69.355469,270.5 L 67.421875,270.5 L 67.421875,255.95898 L 71.074219,255.95898 C 71.933588,255.959 72.666009,256.03061 73.271484,256.17383 C 73.876945,256.31707 74.410799,256.54819 74.873047,256.86719 C 75.413402,257.23829 75.836579,257.70867 76.142578,258.27832 C 76.448557,258.84799 76.601552,259.53647 76.601563,260.34375 L 76.601563,260.34375 z M 74.589844,260.39258 C 74.589835,259.89129 74.503572,259.45509 74.331055,259.08398 C 74.15852,258.7129 73.896476,258.41017 73.544922,258.17578 C 73.238925,257.97397 72.88248,257.83074 72.475586,257.74609 C 72.068679,257.66147 71.562494,257.61915 70.957031,257.61914 L 69.355469,257.61914 L 69.355469,263.42969 L 70.673828,263.42969 C 71.455073,263.42969 72.086582,263.36622 72.568359,263.23926 C 73.050123,263.11231 73.450513,262.88608 73.769531,262.56055 C 74.055981,262.26759 74.264315,261.94858 74.394531,261.60352 C 74.524731,261.25847 74.589835,260.85483 74.589844,260.39258 L 74.589844,260.39258 z "
       style="font-size:20px;font-style:normal;font-weight:normal;fill:#000080;fill-opacity:1;stroke:none;stroke-width:1px;stroke-linecap:butt;stroke-linejoin:miter;stroke-opacity:1;font-family:Tahoma"
       id="rp_24" />
    <path
       d="M 331.25977,275.5 L 328.75,275.5 L 324.14063,269.71875 L 321.93359,269.71875 L 321.93359,275.5 L 320,275.5 L 320,260.95898 L 323.75,260.95898 C 324.58333,260.959 325.28157,261.00457 325.84473,261.0957 C 326.40787,261.18686 326.94335,261.39845 327.45117,261.73047 C 327.95897,262.056 328.36099,262.47592 328.65723,262.99023 C 328.95344,263.50457 329.10155,264.14259 329.10156,264.9043 C 329.10155,265.97201 328.83137,266.86394 328.29102,267.58008 C 327.75064,268.29623 327.01497,268.82683 326.08398,269.17188 L 331.25977,275.5 z M 327.08008,265.05078 C 327.08007,264.62762 327.0052,264.25164 326.85547,263.92285 C 326.70572,263.59409 326.4746,263.32553 326.16211,263.11719 C 325.88866,262.93491 325.56965,262.80633 325.20508,262.73145 C 324.84049,262.65659 324.38801,262.61915 323.84766,262.61914 L 321.93359,262.61914 L 321.93359,268.10742 L 323.63281,268.10742 C 324.18619,268.10743 324.68424,268.0586 325.12695,267.96094 C 325.56965,267.86329 325.94726,267.66147 326.25977,267.35547 C 326.53971,267.08204 326.74641,266.75652 326.87988,266.37891 C 327.01334,266.00131 327.08007,265.5586 327.08008,265.05078 L 327.08008,265.05078 z M 341.60156,265.34375 C 341.60155,265.97527 341.48925,266.5726 341.26465,267.13574 C 341.04003,267.6989 340.72916,268.17904 340.33203,268.57617 C 339.83072,269.07097 339.24153,269.44532 338.56445,269.69922 C 337.88736,269.95313 337.03124,270.08008 335.99609,270.08008 L 334.35547,270.08008 L 334.35547,275.5 L 332.42188,275.5 L 332.42188,260.95898 L 336.07422,260.95898 C 336.93359,260.959 337.66601,261.03061 338.27148,261.17383 C 338.87695,261.31707 339.4108,261.54819 339.87305,261.86719 C 340.4134,262.23829 340.83658,262.70867 341.14258,263.27832 C 341.44856,263.84799 341.60155,264.53647 341.60156,265.34375 L 341.60156,265.34375 z M 339.58984,265.39258 C 339.58984,264.89129 339.50357,264.45509 339.33105,264.08398 C 339.15852,263.7129 338.89648,263.41017 338.54492,263.17578 C 338.23892,262.97397 337.88248,262.83074 337.47559,262.74609 C 337.06868,262.66147 336.56249,262.61915 335.95703,262.61914 L 334.35547,262.61914 L 334.35547,268.42969 L 335.67383,268.42969 C 336.45507,268.42969 337.08658,268.36622 337.56836,268.23926 C 338.05012,268.11231 338.45051,267.88608 338.76953,267.56055 C 339.05598,267.26759 339.26431,266.94858 339.39453,266.60352 C 339.52473,266.25847 339.58984,265.85483 339.58984,265.39258 L 339.58984,265.39258 z "
       style="font-size:20px;font-style:normal;font-weight:normal;fill:#000080;fill-opacity:1;stroke:none;stroke-width:1px;stroke-linecap:butt;stroke-linejoin:miter;stroke-opacity:1;font-family:Tahoma"
       id="rp_92" />
    <path
       d="M 571.25977,275.5 L 568.75,275.5 L 564.14063,269.71875 L 561.93359,269.71875 L 561.93359,275.5 L 560,275.5 L 560,260.95898 L 563.75,260.95898 C 564.58333,260.959 565.28157,261.00457 565.84473,261.0957 C 566.40787,261.18686 566.94335,261.39845 567.45117,261.73047 C 567.95897,262.056 568.36099,262.47592 568.65723,262.99023 C 568.95344,263.50457 569.10155,264.14259 569.10156,264.9043 C 569.10155,265.97201 568.83137,266.86394 568.29102,267.58008 C 567.75064,268.29623 567.01497,268.82683 566.08398,269.17188 L 571.25977,275.5 z M 567.08008,265.05078 C 567.08007,264.62762 567.0052,264.25164 566.85547,263.92285 C 566.70572,263.59409 566.4746,263.32553 566.16211,263.11719 C 565.88866,262.93491 565.56965,262.80633 565.20508,262.73145 C 564.84049,262.65659 564.38801,262.61915 563.84766,262.61914 L 561.93359,262.61914 L 561.93359,268.10742 L 563.63281,268.10742 C 564.18619,268.10743 564.68424,268.0586 565.12695,267.96094 C 565.56965,267.86329 565.94726,267.66147 566.25977,267.35547 C 566.53971,267.08204 566.74641,266.75652 566.87988,266.37891 C 567.01334,266.00131 567.08007,265.5586 567.08008,265.05078 L 567.08008,265.05078 z M 581.60156,265.34375 C 581.60155,265.97527 581.48925,266.5726 581.26465,267.13574 C 581.04003,267.6989 580.72916,268.17904 580.33203,268.57617 C 579.83072,269.07097 579.24153,269.44532 578.56445,269.69922 C 577.88736,269.95313 577.03124,270.08008 575.99609,270.08008 L 574.35547,270.08008 L 574.35547,275.5 L 572.42188,275.5 L 572.42188,260.95898 L 576.07422,260.95898 C 576.93359,260.959 577.66601,261.03061 578.27148,261.17383 C 578.87695,261.31707 579.4108,261.54819 579.87305,261.86719 C 580.4134,262.23829 580.83658,262.70867 581.14258,263.27832 C 581.44856,263.84799 581.60155,264.53647 581.60156,265.34375 L 581.60156,265.34375 z M 579.58984,265.39258 C 579.58984,264.89129 579.50357,264.45509 579.33105,264.08398 C 579.15852,263.7129 578.89648,263.41017 578.54492,263.17578 C 578.23892,262.97397 577.88248,262.83074 577.47559,262.74609 C 577.06868,262.66147 576.56249,262.61915 575.95703,262.61914 L 574.35547,262.61914 L 574.35547,268.42969 L 575.67383,268.42969 C 576.45507,268.42969 577.08658,268.36622 577.56836,268.23926 C 578.05012,268.11231 578.45051,267.88608 578.76953,267.56055 C 579.05598,267.26759 579.26431,266.94858 579.39453,266.60352 C 579.52473,266.25847 579.58984,265.85483 579.58984,265.39258 L 579.58984,265.39258 z "
       style="font-size:20px;font-style:normal;font-weight:normal;fill:#000080;fill-opacity:1;stroke:none;stroke-width:1px;stroke-linecap:butt;stroke-linejoin:miter;stroke-opacity:1;font-family:Tahoma"
       id="rp_12" />
    <path
       d="M 301.25977,495.5 L 298.75,495.5 L 294.14063,489.71875 L 291.93359,489.71875 L 291.93359,495.5 L 290,495.5 L 290,480.95898 L 293.75,480.95898 C 294.58333,480.959 295.28157,481.00457 295.84473,481.0957 C 296.40787,481.18686 296.94335,481.39845 297.45117,481.73047 C 297.95897,482.056 298.36099,482.47592 298.65723,482.99023 C 298.95344,483.50457 299.10155,484.14259 299.10156,484.9043 C 299.10155,485.97201 298.83137,486.86394 298.29102,487.58008 C 297.75064,488.29623 297.01497,488.82683 296.08398,489.17188 L 301.25977,495.5 z M 297.08008,485.05078 C 297.08007,484.62762 297.0052,484.25164 296.85547,483.92285 C 296.70572,483.59409 296.4746,483.32553 296.16211,483.11719 C 295.88866,482.93491 295.56965,482.80633 295.20508,482.73145 C 294.84049,482.65659 294.38801,482.61915 293.84766,482.61914 L 291.93359,482.61914 L 291.93359,488.10742 L 293.63281,488.10742 C 294.18619,488.10743 294.68424,488.0586 295.12695,487.96094 C 295.56965,487.86329 295.94726,487.66147 296.25977,487.35547 C 296.53971,487.08204 296.74641,486.75652 296.87988,486.37891 C 297.01334,486.00131 297.08007,485.5586 297.08008,485.05078 L 297.08008,485.05078 z M 311.60156,485.34375 C 311.60155,485.97527 311.48925,486.5726 311.26465,487.13574 C 311.04003,487.6989 310.72916,488.17904 310.33203,488.57617 C 309.83072,489.07097 309.24153,489.44532 308.56445,489.69922 C 307.88736,489.95313 307.03124,490.08008 305.99609,490.08008 L 304.35547,490.08008 L 304.35547,495.5 L 302.42188,495.5 L 302.42188,480.95898 L 306.07422,480.95898 C 306.93359,480.959 307.66601,481.03061 308.27148,481.17383 C 308.87695,481.31707 309.4108,481.54819 309.87305,481.86719 C 310.4134,482.23829 310.83658,482.70867 311.14258,483.27832 C 311.44856,483.84799 311.60155,484.53647 311.60156,485.34375 L 311.60156,485.34375 z M 309.58984,485.39258 C 309.58984,484.89129 309.50357,484.45509 309.33105,484.08398 C 309.15852,483.7129 308.89648,483.41017 308.54492,483.17578 C 308.23892,482.97397 307.88248,482.83074 307.47559,482.74609 C 307.06868,482.66147 306.56249,482.61915 305.95703,482.61914 L 304.35547,482.61914 L 304.35547,488.42969 L 305.67383,488.42969 C 306.45507,488.42969 307.08658,488.36622 307.56836,488.23926 C 308.05012,488.11231 308.45051,487.88608 308.76953,487.56055 C 309.05598,487.26759 309.26431,486.94858 309.39453,486.60352 C 309.52473,486.25847 309.58984,485.85483 309.58984,485.39258 L 309.58984,485.39258 z "
       style="font-size:20px;font-style:normal;font-weight:normal;fill:#000080;fill-opacity:1;stroke:none;stroke-width:1px;stroke-linecap:butt;stroke-linejoin:miter;stroke-opacity:1;font-family:Tahoma"
       id="rp_5" />
    <path
       d="M 71.259766,495.5 L 68.75,495.5 L 64.140625,489.71875 L 61.933594,489.71875 L 61.933594,495.5 L 60,495.5 L 60,480.95898 L 63.75,480.95898 C 64.583327,480.959 65.281569,481.00457 65.844727,481.0957 C 66.40787,481.18686 66.943351,481.39845 67.451172,481.73047 C 67.958975,482.056 68.360993,482.47592 68.657227,482.99023 C 68.95344,483.50457 69.101552,484.14259 69.101563,484.9043 C 69.101552,485.97201 68.83137,486.86394 68.291016,487.58008 C 67.750642,488.29623 67.014965,488.82683 66.083984,489.17188 L 71.259766,495.5 z M 67.080078,485.05078 C 67.08007,484.62762 67.0052,484.25164 66.855469,483.92285 C 66.705721,483.59409 66.474601,483.32553 66.162109,483.11719 C 65.888665,482.93491 65.569654,482.80633 65.205078,482.73145 C 64.840488,482.65659 64.388015,482.61915 63.847656,482.61914 L 61.933594,482.61914 L 61.933594,488.10742 L 63.632813,488.10742 C 64.186192,488.10743 64.684239,488.0586 65.126953,487.96094 C 65.569654,487.86329 65.947258,487.66147 66.259766,487.35547 C 66.539706,487.08204 66.746411,486.75652 66.879883,486.37891 C 67.013338,486.00131 67.08007,485.5586 67.080078,485.05078 L 67.080078,485.05078 z M 81.601563,485.34375 C 81.601552,485.97527 81.489247,486.5726 81.264648,487.13574 C 81.040029,487.6989 80.729157,488.17904 80.332031,488.57617 C 79.83072,489.07097 79.241528,489.44532 78.564453,489.69922 C 77.887363,489.95313 77.031244,490.08008 75.996094,490.08008 L 74.355469,490.08008 L 74.355469,495.5 L 72.421875,495.5 L 72.421875,480.95898 L 76.074219,480.95898 C 76.933588,480.959 77.666009,481.03061 78.271484,481.17383 C 78.876945,481.31707 79.410799,481.54819 79.873047,481.86719 C 80.413402,482.23829 80.836579,482.70867 81.142578,483.27832 C 81.448557,483.84799 81.601552,484.53647 81.601563,485.34375 L 81.601563,485.34375 z M 79.589844,485.39258 C 79.589835,484.89129 79.503572,484.45509 79.331055,484.08398 C 79.15852,483.7129 78.896476,483.41017 78.544922,483.17578 C 78.238925,482.97397 77.88248,482.83074 77.475586,482.74609 C 77.068679,482.66147 76.562494,482.61915 75.957031,482.61914 L 74.355469,482.61914 L 74.355469,488.42969 L 75.673828,488.42969 C 76.455073,488.42969 77.086582,488.36622 77.568359,488.23926 C 78.050123,488.11231 78.450513,487.88608 78.769531,487.56055 C 79.055981,487.26759 79.264315,486.94858 79.394531,486.60352 C 79.524731,486.25847 79.589835,485.85483 79.589844,485.39258 L 79.589844,485.39258 z "
       style="font-size:20px;font-style:normal;font-weight:normal;fill:#000080;fill-opacity:1;stroke:none;stroke-width:1px;stroke-linecap:butt;stroke-linejoin:miter;stroke-opacity:1;font-family:Tahoma"
       id="rp_4" />
    <path
       d="M 486.25977,495.5 L 483.75,495.5 L 479.14063,489.71875 L 476.93359,489.71875 L 476.93359,495.5 L 475,495.5 L 475,480.95898 L 478.75,480.95898 C 479.58333,480.959 480.28157,481.00457 480.84473,481.0957 C 481.40787,481.18686 481.94335,481.39845 482.45117,481.73047 C 482.95897,482.056 483.36099,482.47592 483.65723,482.99023 C 483.95344,483.50457 484.10155,484.14259 484.10156,484.9043 C 484.10155,485.97201 483.83137,486.86394 483.29102,487.58008 C 482.75064,488.29623 482.01497,488.82683 481.08398,489.17188 L 486.25977,495.5 z M 482.08008,485.05078 C 482.08007,484.62762 482.0052,484.25164 481.85547,483.92285 C 481.70572,483.59409 481.4746,483.32553 481.16211,483.11719 C 480.88866,482.93491 480.56965,482.80633 480.20508,482.73145 C 479.84049,482.65659 479.38801,482.61915 478.84766,482.61914 L 476.93359,482.61914 L 476.93359,488.10742 L 478.63281,488.10742 C 479.18619,488.10743 479.68424,488.0586 480.12695,487.96094 C 480.56965,487.86329 480.94726,487.66147 481.25977,487.35547 C 481.53971,487.08204 481.74641,486.75652 481.87988,486.37891 C 482.01334,486.00131 482.08007,485.5586 482.08008,485.05078 L 482.08008,485.05078 z M 496.60156,485.34375 C 496.60155,485.97527 496.48925,486.5726 496.26465,487.13574 C 496.04003,487.6989 495.72916,488.17904 495.33203,488.57617 C 494.83072,489.07097 494.24153,489.44532 493.56445,489.69922 C 492.88736,489.95313 492.03124,490.08008 490.99609,490.08008 L 489.35547,490.08008 L 489.35547,495.5 L 487.42188,495.5 L 487.42188,480.95898 L 491.07422,480.95898 C 491.93359,480.959 492.66601,481.03061 493.27148,481.17383 C 493.87695,481.31707 494.4108,481.54819 494.87305,481.86719 C 495.4134,482.23829 495.83658,482.70867 496.14258,483.27832 C 496.44856,483.84799 496.60155,484.53647 496.60156,485.34375 L 496.60156,485.34375 z M 494.58984,485.39258 C 494.58984,484.89129 494.50357,484.45509 494.33105,484.08398 C 494.15852,483.7129 493.89648,483.41017 493.54492,483.17578 C 493.23892,482.97397 492.88248,482.83074 492.47559,482.74609 C 492.06868,482.66147 491.56249,482.61915 490.95703,482.61914 L 489.35547,482.61914 L 489.35547,488.42969 L 490.67383,488.42969 C 491.45507,488.42969 492.08658,488.36622 492.56836,488.23926 C 493.05012,488.11231 493.45051,487.88608 493.76953,487.56055 C 494.05598,487.26759 494.26431,486.94858 494.39453,486.60352 C 494.52473,486.25847 494.58984,485.85483 494.58984,485.39258 L 494.58984,485.39258 z "
       style="font-size:20px;font-style:normal;font-weight:normal;fill:#000080;fill-opacity:1;stroke:none;stroke-width:1px;stroke-linecap:butt;stroke-linejoin:miter;stroke-opacity:1;font-family:Tahoma"
       id="rp_7" />
  </g>
  <g
     id="designated_ports">
    <path
       d="M 271.46484,68.244141 C 271.46483,69.572272 271.19628,70.770187 270.65918,71.837891 C 270.12206,72.905602 269.40103,73.738934 268.49609,74.337891 C 267.76041,74.800131 267.01334,75.109375 266.25488,75.265625 C 265.49641,75.421875 264.52799,75.5 263.34961,75.5 L 260,75.5 L 260,60.958984 L 263.31055,60.958984 C 264.67773,60.958999 265.75032,61.061538 266.52832,61.266602 C 267.30631,61.471694 267.96874,61.753269 268.51563,62.111328 C 269.45311,62.72983 270.17902,63.55177 270.69336,64.577148 C 271.20767,65.602549 271.46483,66.824878 271.46484,68.244141 L 271.46484,68.244141 z M 269.45313,68.214844 C 269.45311,67.09506 269.26757,66.139658 268.89648,65.348633 C 268.52538,64.557628 267.97525,63.940767 267.24609,63.498047 C 266.73176,63.185559 266.18163,62.96095 265.5957,62.824219 C 265.00976,62.687513 264.28059,62.619154 263.4082,62.619141 L 261.93359,62.619141 L 261.93359,73.839844 L 263.4082,73.839844 C 264.26757,73.839845 265.01952,73.771486 265.66406,73.634766 C 266.30859,73.498049 266.89778,73.244143 267.43164,72.873047 C 268.1022,72.417321 268.60676,71.810225 268.94531,71.051758 C 269.28384,70.293299 269.45311,69.347662 269.45313,68.214844 L 269.45313,68.214844 z M 282.73438,65.34375 C 282.73436,65.97527 282.62206,66.5726 282.39746,67.135742 C 282.17284,67.698901 281.86197,68.179044 281.46484,68.576172 C 280.96353,69.07097 280.37434,69.445319 279.69727,69.699219 C 279.02018,69.953131 278.16406,70.080084 277.12891,70.080078 L 275.48828,70.080078 L 275.48828,75.5 L 273.55469,75.5 L 273.55469,60.958984 L 277.20703,60.958984 C 278.0664,60.958999 278.79882,61.030613 279.4043,61.173828 C 280.00976,61.317071 280.54361,61.548191 281.00586,61.867188 C 281.54621,62.238295 281.96939,62.708672 282.27539,63.27832 C 282.58137,63.847993 282.73436,64.536469 282.73438,65.34375 L 282.73438,65.34375 z M 280.72266,65.392578 C 280.72265,64.891287 280.63638,64.455089 280.46387,64.083984 C 280.29133,63.712902 280.02929,63.410168 279.67773,63.175781 C 279.37174,62.973971 279.01529,62.830742 278.6084,62.746094 C 278.20149,62.661471 277.69531,62.619154 277.08984,62.619141 L 275.48828,62.619141 L 275.48828,68.429688 L 276.80664,68.429688 C 277.58789,68.429695 278.21939,68.366218 278.70117,68.239258 C 279.18294,68.112312 279.58333,67.886075 279.90234,67.560547 C 280.18879,67.267586 280.39713,66.948576 280.52734,66.603516 C 280.65754,66.258473 280.72265,65.854827 280.72266,65.392578 L 280.72266,65.392578 z "
       style="font-size:20px;font-style:normal;font-weight:normal;fill:#008000;fill-opacity:1;stroke:none;stroke-width:1px;stroke-linecap:butt;stroke-linejoin:miter;stroke-opacity:1;font-family:Tahoma"
       id="dp_a" />
    <path
       d="M 336.46484,68.244141 C 336.46483,69.572272 336.19628,70.770187 335.65918,71.837891 C 335.12206,72.905602 334.40103,73.738934 333.49609,74.337891 C 332.76041,74.800131 332.01334,75.109375 331.25488,75.265625 C 330.49641,75.421875 329.52799,75.5 328.34961,75.5 L 325,75.5 L 325,60.958984 L 328.31055,60.958984 C 329.67773,60.958999 330.75032,61.061538 331.52832,61.266602 C 332.30631,61.471694 332.96874,61.753269 333.51563,62.111328 C 334.45311,62.72983 335.17902,63.55177 335.69336,64.577148 C 336.20767,65.602549 336.46483,66.824878 336.46484,68.244141 L 336.46484,68.244141 z M 334.45313,68.214844 C 334.45311,67.09506 334.26757,66.139658 333.89648,65.348633 C 333.52538,64.557628 332.97525,63.940767 332.24609,63.498047 C 331.73176,63.185559 331.18163,62.96095 330.5957,62.824219 C 330.00976,62.687513 329.28059,62.619154 328.4082,62.619141 L 326.93359,62.619141 L 326.93359,73.839844 L 328.4082,73.839844 C 329.26757,73.839845 330.01952,73.771486 330.66406,73.634766 C 331.30859,73.498049 331.89778,73.244143 332.43164,72.873047 C 333.1022,72.417321 333.60676,71.810225 333.94531,71.051758 C 334.28384,70.293299 334.45311,69.347662 334.45313,68.214844 L 334.45313,68.214844 z M 347.73438,65.34375 C 347.73436,65.97527 347.62206,66.5726 347.39746,67.135742 C 347.17284,67.698901 346.86197,68.179044 346.46484,68.576172 C 345.96353,69.07097 345.37434,69.445319 344.69727,69.699219 C 344.02018,69.953131 343.16406,70.080084 342.12891,70.080078 L 340.48828,70.080078 L 340.48828,75.5 L 338.55469,75.5 L 338.55469,60.958984 L 342.20703,60.958984 C 343.0664,60.958999 343.79882,61.030613 344.4043,61.173828 C 345.00976,61.317071 345.54361,61.548191 346.00586,61.867188 C 346.54621,62.238295 346.96939,62.708672 347.27539,63.27832 C 347.58137,63.847993 347.73436,64.536469 347.73438,65.34375 L 347.73438,65.34375 z M 345.72266,65.392578 C 345.72265,64.891287 345.63638,64.455089 345.46387,64.083984 C 345.29133,63.712902 345.02929,63.410168 344.67773,63.175781 C 344.37174,62.973971 344.01529,62.830742 343.6084,62.746094 C 343.20149,62.661471 342.69531,62.619154 342.08984,62.619141 L 340.48828,62.619141 L 340.48828,68.429688 L 341.80664,68.429688 C 342.58789,68.429695 343.21939,68.366218 343.70117,68.239258 C 344.18294,68.112312 344.58333,67.886075 344.90234,67.560547 C 345.18879,67.267586 345.39713,66.948576 345.52734,66.603516 C 345.65754,66.258473 345.72265,65.854827 345.72266,65.392578 L 345.72266,65.392578 z "
       style="font-size:20px;font-style:normal;font-weight:normal;fill:#008000;fill-opacity:1;stroke:none;stroke-width:1px;stroke-linecap:butt;stroke-linejoin:miter;stroke-opacity:1;font-family:Tahoma"
       id="dp_b" />
    <path
       d="M 81.464844,328.24414 C 81.464831,329.57227 81.196276,330.77019 80.65918,331.83789 C 80.122059,332.9056 79.401031,333.73893 78.496094,334.33789 C 77.760407,334.80013 77.013338,335.10938 76.254883,335.26563 C 75.496412,335.42188 74.527989,335.5 73.349609,335.5 L 70,335.5 L 70,320.95898 L 73.310547,320.95898 C 74.677728,320.959 75.750318,321.06154 76.52832,321.2666 C 77.306306,321.47169 77.968741,321.75327 78.515625,322.11133 C 79.453114,322.72983 80.179025,323.55177 80.693359,324.57715 C 81.20767,325.60255 81.464831,326.82488 81.464844,328.24414 L 81.464844,328.24414 z M 79.453125,328.21484 C 79.453114,327.09506 79.267567,326.13966 78.896484,325.34863 C 78.525381,324.55763 77.975251,323.94077 77.246094,323.49805 C 76.731763,323.18556 76.181633,322.96095 75.595703,322.82422 C 75.009759,322.68751 74.280593,322.61915 73.408203,322.61914 L 71.933594,322.61914 L 71.933594,333.83984 L 73.408203,333.83984 C 74.267572,333.83985 75.019525,333.77149 75.664063,333.63477 C 76.308586,333.49805 76.897778,333.24414 77.431641,332.87305 C 78.102204,332.41732 78.606761,331.81023 78.945313,331.05176 C 79.283843,330.2933 79.453114,329.34766 79.453125,328.21484 L 79.453125,328.21484 z M 92.734375,325.34375 C 92.734364,325.97527 92.62206,326.5726 92.397461,327.13574 C 92.172841,327.6989 91.861969,328.17904 91.464844,328.57617 C 90.963533,329.07097 90.374341,329.44532 89.697266,329.69922 C 89.020175,329.95313 88.164056,330.08008 87.128906,330.08008 L 85.488281,330.08008 L 85.488281,335.5 L 83.554688,335.5 L 83.554688,320.95898 L 87.207031,320.95898 C 88.0664,320.959 88.798821,321.03061 89.404297,321.17383 C 90.009758,321.31707 90.543611,321.54819 91.005859,321.86719 C 91.546214,322.23829 91.969391,322.70867 92.275391,323.27832 C 92.58137,323.84799 92.734364,324.53647 92.734375,325.34375 L 92.734375,325.34375 z M 90.722656,325.39258 C 90.722648,324.89129 90.636385,324.45509 90.463867,324.08398 C 90.291333,323.7129 90.029289,323.41017 89.677734,323.17578 C 89.371737,322.97397 89.015293,322.83074 88.608398,322.74609 C 88.201491,322.66147 87.695307,322.61915 87.089844,322.61914 L 85.488281,322.61914 L 85.488281,328.42969 L 86.806641,328.42969 C 87.587885,328.42969 88.219395,328.36622 88.701172,328.23926 C 89.182936,328.11231 89.583326,327.88608 89.902344,327.56055 C 90.188794,327.26759 90.397127,326.94858 90.527344,326.60352 C 90.657544,326.25847 90.722648,325.85483 90.722656,325.39258 L 90.722656,325.39258 z "
       style="font-size:20px;font-style:normal;font-weight:normal;fill:#008000;fill-opacity:1;stroke:none;stroke-width:1px;stroke-linecap:butt;stroke-linejoin:miter;stroke-opacity:1;font-family:Tahoma"
       id="dp_c" />
    <path
       d="M 106.46484,283.24414 C 106.46483,284.57227 106.19628,285.77019 105.65918,286.83789 C 105.12206,287.9056 104.40103,288.73893 103.49609,289.33789 C 102.76041,289.80013 102.01334,290.10938 101.25488,290.26563 C 100.49641,290.42188 99.527989,290.5 98.349609,290.5 L 95,290.5 L 95,275.95898 L 98.310547,275.95898 C 99.677728,275.959 100.75032,276.06154 101.52832,276.2666 C 102.30631,276.47169 102.96874,276.75327 103.51563,277.11133 C 104.45311,277.72983 105.17902,278.55177 105.69336,279.57715 C 106.20767,280.60255 106.46483,281.82488 106.46484,283.24414 L 106.46484,283.24414 z M 104.45313,283.21484 C 104.45311,282.09506 104.26757,281.13966 103.89648,280.34863 C 103.52538,279.55763 102.97525,278.94077 102.24609,278.49805 C 101.73176,278.18556 101.18163,277.96095 100.5957,277.82422 C 100.00976,277.68751 99.280593,277.61915 98.408203,277.61914 L 96.933594,277.61914 L 96.933594,288.83984 L 98.408203,288.83984 C 99.267572,288.83985 100.01952,288.77149 100.66406,288.63477 C 101.30859,288.49805 101.89778,288.24414 102.43164,287.87305 C 103.1022,287.41732 103.60676,286.81023 103.94531,286.05176 C 104.28384,285.2933 104.45311,284.34766 104.45313,283.21484 L 104.45313,283.21484 z M 117.73438,280.34375 C 117.73436,280.97527 117.62206,281.5726 117.39746,282.13574 C 117.17284,282.6989 116.86197,283.17904 116.46484,283.57617 C 115.96353,284.07097 115.37434,284.44532 114.69727,284.69922 C 114.02018,284.95313 113.16406,285.08008 112.12891,285.08008 L 110.48828,285.08008 L 110.48828,290.5 L 108.55469,290.5 L 108.55469,275.95898 L 112.20703,275.95898 C 113.0664,275.959 113.79882,276.03061 114.4043,276.17383 C 115.00976,276.31707 115.54361,276.54819 116.00586,276.86719 C 116.54621,277.23829 116.96939,277.70867 117.27539,278.27832 C 117.58137,278.84799 117.73436,279.53647 117.73438,280.34375 L 117.73438,280.34375 z M 115.72266,280.39258 C 115.72265,279.89129 115.63638,279.45509 115.46387,279.08398 C 115.29133,278.7129 115.02929,278.41017 114.67773,278.17578 C 114.37174,277.97397 114.01529,277.83074 113.6084,277.74609 C 113.20149,277.66147 112.69531,277.61915 112.08984,277.61914 L 110.48828,277.61914 L 110.48828,283.42969 L 111.80664,283.42969 C 112.58789,283.42969 113.21939,283.36622 113.70117,283.23926 C 114.18294,283.11231 114.58333,282.88608 114.90234,282.56055 C 115.18879,282.26759 115.39713,281.94858 115.52734,281.60352 C 115.65754,281.25847 115.72265,280.85483 115.72266,280.39258 L 115.72266,280.39258 z "
       style="font-size:20px;font-style:normal;font-weight:normal;fill:#008000;fill-opacity:1;stroke:none;stroke-width:1px;stroke-linecap:butt;stroke-linejoin:miter;stroke-opacity:1;font-family:Tahoma"
       id="dp_d" />
    <path
       d="M 326.46484,333.24414 C 326.46483,334.57227 326.19628,335.77019 325.65918,336.83789 C 325.12206,337.9056 324.40103,338.73893 323.49609,339.33789 C 322.76041,339.80013 322.01334,340.10938 321.25488,340.26563 C 320.49641,340.42188 319.52799,340.5 318.34961,340.5 L 315,340.5 L 315,325.95898 L 318.31055,325.95898 C 319.67773,325.959 320.75032,326.06154 321.52832,326.2666 C 322.30631,326.47169 322.96874,326.75327 323.51563,327.11133 C 324.45311,327.72983 325.17902,328.55177 325.69336,329.57715 C 326.20767,330.60255 326.46483,331.82488 326.46484,333.24414 L 326.46484,333.24414 z M 324.45313,333.21484 C 324.45311,332.09506 324.26757,331.13966 323.89648,330.34863 C 323.52538,329.55763 322.97525,328.94077 322.24609,328.49805 C 321.73176,328.18556 321.18163,327.96095 320.5957,327.82422 C 320.00976,327.68751 319.28059,327.61915 318.4082,327.61914 L 316.93359,327.61914 L 316.93359,338.83984 L 318.4082,338.83984 C 319.26757,338.83985 320.01952,338.77149 320.66406,338.63477 C 321.30859,338.49805 321.89778,338.24414 322.43164,337.87305 C 323.1022,337.41732 323.60676,336.81023 323.94531,336.05176 C 324.28384,335.2933 324.45311,334.34766 324.45313,333.21484 L 324.45313,333.21484 z M 337.73438,330.34375 C 337.73436,330.97527 337.62206,331.5726 337.39746,332.13574 C 337.17284,332.6989 336.86197,333.17904 336.46484,333.57617 C 335.96353,334.07097 335.37434,334.44532 334.69727,334.69922 C 334.02018,334.95313 333.16406,335.08008 332.12891,335.08008 L 330.48828,335.08008 L 330.48828,340.5 L 328.55469,340.5 L 328.55469,325.95898 L 332.20703,325.95898 C 333.0664,325.959 333.79882,326.03061 334.4043,326.17383 C 335.00976,326.31707 335.54361,326.54819 336.00586,326.86719 C 336.54621,327.23829 336.96939,327.70867 337.27539,328.27832 C 337.58137,328.84799 337.73436,329.53647 337.73438,330.34375 L 337.73438,330.34375 z M 335.72266,330.39258 C 335.72265,329.89129 335.63638,329.45509 335.46387,329.08398 C 335.29133,328.7129 335.02929,328.41017 334.67773,328.17578 C 334.37174,327.97397 334.01529,327.83074 333.6084,327.74609 C 333.20149,327.66147 332.69531,327.61915 332.08984,327.61914 L 330.48828,327.61914 L 330.48828,333.42969 L 331.80664,333.42969 C 332.58789,333.42969 333.21939,333.36622 333.70117,333.23926 C 334.18294,333.11231 334.58333,332.88608 334.90234,332.56055 C 335.18879,332.26759 335.39713,331.94858 335.52734,331.60352 C 335.65754,331.25847 335.72265,330.85483 335.72266,330.39258 L 335.72266,330.39258 z "
       style="font-size:20px;font-style:normal;font-weight:normal;fill:#008000;fill-opacity:1;stroke:none;stroke-width:1px;stroke-linecap:butt;stroke-linejoin:miter;stroke-opacity:1;font-family:Tahoma"
       id="dp_e" />
    <path
       d="M 86.464844,508.24414 C 86.464831,509.57227 86.196276,510.77019 85.65918,511.83789 C 85.122059,512.9056 84.401031,513.73893 83.496094,514.33789 C 82.760407,514.80013 82.013338,515.10938 81.254883,515.26563 C 80.496412,515.42188 79.527989,515.5 78.349609,515.5 L 75,515.5 L 75,500.95898 L 78.310547,500.95898 C 79.677728,500.959 80.750318,501.06154 81.52832,501.2666 C 82.306306,501.47169 82.968741,501.75327 83.515625,502.11133 C 84.453114,502.72983 85.179025,503.55177 85.693359,504.57715 C 86.20767,505.60255 86.464831,506.82488 86.464844,508.24414 L 86.464844,508.24414 z M 84.453125,508.21484 C 84.453114,507.09506 84.267567,506.13966 83.896484,505.34863 C 83.525381,504.55763 82.975251,503.94077 82.246094,503.49805 C 81.731763,503.18556 81.181633,502.96095 80.595703,502.82422 C 80.009759,502.68751 79.280593,502.61915 78.408203,502.61914 L 76.933594,502.61914 L 76.933594,513.83984 L 78.408203,513.83984 C 79.267572,513.83985 80.019525,513.77149 80.664063,513.63477 C 81.308586,513.49805 81.897778,513.24414 82.431641,512.87305 C 83.102204,512.41732 83.606761,511.81023 83.945313,511.05176 C 84.283843,510.2933 84.453114,509.34766 84.453125,508.21484 L 84.453125,508.21484 z M 97.734375,505.34375 C 97.734364,505.97527 97.62206,506.5726 97.397461,507.13574 C 97.172841,507.6989 96.861969,508.17904 96.464844,508.57617 C 95.963533,509.07097 95.374341,509.44532 94.697266,509.69922 C 94.020175,509.95313 93.164056,510.08008 92.128906,510.08008 L 90.488281,510.08008 L 90.488281,515.5 L 88.554688,515.5 L 88.554688,500.95898 L 92.207031,500.95898 C 93.0664,500.959 93.798821,501.03061 94.404297,501.17383 C 95.009758,501.31707 95.543611,501.54819 96.005859,501.86719 C 96.546214,502.23829 96.969391,502.70867 97.275391,503.27832 C 97.58137,503.84799 97.734364,504.53647 97.734375,505.34375 L 97.734375,505.34375 z M 95.722656,505.39258 C 95.722648,504.89129 95.636385,504.45509 95.463867,504.08398 C 95.291333,503.7129 95.029289,503.41017 94.677734,503.17578 C 94.371737,502.97397 94.015293,502.83074 93.608398,502.74609 C 93.201491,502.66147 92.695307,502.61915 92.089844,502.61914 L 90.488281,502.61914 L 90.488281,508.42969 L 91.806641,508.42969 C 92.587885,508.42969 93.219395,508.36622 93.701172,508.23926 C 94.182936,508.11231 94.583326,507.88608 94.902344,507.56055 C 95.188794,507.26759 95.397127,506.94858 95.527344,506.60352 C 95.657544,506.25847 95.722648,505.85483 95.722656,505.39258 L 95.722656,505.39258 z "
       style="font-size:20px;font-style:normal;font-weight:normal;fill:#008000;fill-opacity:1;stroke:none;stroke-width:1px;stroke-linecap:butt;stroke-linejoin:miter;stroke-opacity:1;font-family:Tahoma"
       id="dp_f" />
  </g>
  <g
     id="blocked_ports">
    <path
       d="M 299.86328,291.03711 C 299.86327,291.75977 299.72655,292.39779 299.45313,292.95117 C 299.17968,293.50456 298.81184,293.96029 298.34961,294.31836 C 297.80273,294.74805 297.21679,295.05241 296.5918,295.23145 C 295.96679,295.41048 295.1595,295.5 294.16992,295.5 L 290,295.5 L 290,280.95898 L 293.85742,280.95898 C 294.89257,280.959 295.66894,280.99318 296.18652,281.06152 C 296.70409,281.1299 297.20051,281.29103 297.67578,281.54492 C 298.1966,281.82488 298.57746,282.19109 298.81836,282.64355 C 299.05923,283.09604 299.17968,283.62827 299.17969,284.24023 C 299.17968,284.92384 298.99901,285.53582 298.6377,286.07617 C 298.27636,286.61655 297.77668,287.03972 297.13867,287.3457 L 297.13867,287.42383 C 298.00455,287.65821 298.67512,288.08627 299.15039,288.70801 C 299.62564,289.32976 299.86327,290.10613 299.86328,291.03711 L 299.86328,291.03711 z M 297.16797,284.51367 C 297.16796,284.16212 297.10937,283.85776 296.99219,283.60059 C 296.87499,283.34344 296.68619,283.13999 296.42578,282.99023 C 296.11327,282.81447 295.76497,282.70704 295.38086,282.66797 C 294.99674,282.62892 294.46614,282.60939 293.78906,282.60938 L 291.93359,282.60938 L 291.93359,286.86719 L 294.13086,286.86719 C 294.73632,286.8672 295.18229,286.83627 295.46875,286.77441 C 295.7552,286.71257 296.05142,286.58399 296.35742,286.38867 C 296.65038,286.19988 296.85872,285.95248 296.98242,285.64648 C 297.10611,285.3405 297.16796,284.9629 297.16797,284.51367 L 297.16797,284.51367 z M 297.85156,291.11523 C 297.85155,290.56836 297.77343,290.11752 297.61719,289.7627 C 297.46093,289.40788 297.14517,289.10678 296.66992,288.85938 C 296.36392,288.69662 296.03027,288.59245 295.66895,288.54688 C 295.30761,288.50131 294.79492,288.47852 294.13086,288.47852 L 291.93359,288.47852 L 291.93359,293.84961 L 293.50586,293.84961 C 294.35221,293.84961 295.01952,293.81055 295.50781,293.73242 C 295.99609,293.6543 296.42577,293.48828 296.79688,293.23438 C 297.16145,292.98047 297.42838,292.69239 297.59766,292.37012 C 297.76692,292.04786 297.85155,291.62956 297.85156,291.11523 L 297.85156,291.11523 z M 310.97656,285.34375 C 310.97655,285.97527 310.86425,286.5726 310.63965,287.13574 C 310.41503,287.6989 310.10416,288.17904 309.70703,288.57617 C 309.20572,289.07097 308.61653,289.44532 307.93945,289.69922 C 307.26236,289.95313 306.40624,290.08008 305.37109,290.08008 L 303.73047,290.08008 L 303.73047,295.5 L 301.79688,295.5 L 301.79688,280.95898 L 305.44922,280.95898 C 306.30859,280.959 307.04101,281.03061 307.64648,281.17383 C 308.25195,281.31707 308.7858,281.54819 309.24805,281.86719 C 309.7884,282.23829 310.21158,282.70867 310.51758,283.27832 C 310.82356,283.84799 310.97655,284.53647 310.97656,285.34375 L 310.97656,285.34375 z M 308.96484,285.39258 C 308.96484,284.89129 308.87857,284.45509 308.70605,284.08398 C 308.53352,283.7129 308.27148,283.41017 307.91992,283.17578 C 307.61392,282.97397 307.25748,282.83074 306.85059,282.74609 C 306.44368,282.66147 305.93749,282.61915 305.33203,282.61914 L 303.73047,282.61914 L 303.73047,288.42969 L 305.04883,288.42969 C 305.83007,288.42969 306.46158,288.36622 306.94336,288.23926 C 307.42512,288.11231 307.82551,287.88608 308.14453,287.56055 C 308.43098,287.26759 308.63931,286.94858 308.76953,286.60352 C 308.89973,286.25847 308.96484,285.85483 308.96484,285.39258 L 308.96484,285.39258 z "
       style="font-size:20px;font-style:normal;font-weight:normal;fill:#d40000;fill-opacity:1;stroke:none;stroke-width:1px;stroke-linecap:butt;stroke-linejoin:miter;stroke-opacity:1;font-family:Tahoma"
       id="bp_d_92" />
    <path
       d="M 269.86328,531.03711 C 269.86327,531.75977 269.72655,532.39779 269.45313,532.95117 C 269.17968,533.50456 268.81184,533.96029 268.34961,534.31836 C 267.80273,534.74805 267.21679,535.05241 266.5918,535.23145 C 265.96679,535.41048 265.1595,535.5 264.16992,535.5 L 260,535.5 L 260,520.95898 L 263.85742,520.95898 C 264.89257,520.959 265.66894,520.99318 266.18652,521.06152 C 266.70409,521.1299 267.20051,521.29103 267.67578,521.54492 C 268.1966,521.82488 268.57746,522.19109 268.81836,522.64355 C 269.05923,523.09604 269.17968,523.62827 269.17969,524.24023 C 269.17968,524.92384 268.99901,525.53582 268.6377,526.07617 C 268.27636,526.61655 267.77668,527.03972 267.13867,527.3457 L 267.13867,527.42383 C 268.00455,527.65821 268.67512,528.08627 269.15039,528.70801 C 269.62564,529.32976 269.86327,530.10613 269.86328,531.03711 L 269.86328,531.03711 z M 267.16797,524.51367 C 267.16796,524.16212 267.10937,523.85776 266.99219,523.60059 C 266.87499,523.34344 266.68619,523.13999 266.42578,522.99023 C 266.11327,522.81447 265.76497,522.70704 265.38086,522.66797 C 264.99674,522.62892 264.46614,522.60939 263.78906,522.60938 L 261.93359,522.60938 L 261.93359,526.86719 L 264.13086,526.86719 C 264.73632,526.8672 265.18229,526.83627 265.46875,526.77441 C 265.7552,526.71257 266.05142,526.58399 266.35742,526.38867 C 266.65038,526.19988 266.85872,525.95248 266.98242,525.64648 C 267.10611,525.3405 267.16796,524.9629 267.16797,524.51367 L 267.16797,524.51367 z M 267.85156,531.11523 C 267.85155,530.56836 267.77343,530.11752 267.61719,529.7627 C 267.46093,529.40788 267.14517,529.10678 266.66992,528.85938 C 266.36392,528.69662 266.03027,528.59245 265.66895,528.54688 C 265.30761,528.50131 264.79492,528.47852 264.13086,528.47852 L 261.93359,528.47852 L 261.93359,533.84961 L 263.50586,533.84961 C 264.35221,533.84961 265.01952,533.81055 265.50781,533.73242 C 265.99609,533.6543 266.42577,533.48828 266.79688,533.23438 C 267.16145,532.98047 267.42838,532.69239 267.59766,532.37012 C 267.76692,532.04786 267.85155,531.62956 267.85156,531.11523 L 267.85156,531.11523 z M 280.97656,525.34375 C 280.97655,525.97527 280.86425,526.5726 280.63965,527.13574 C 280.41503,527.6989 280.10416,528.17904 279.70703,528.57617 C 279.20572,529.07097 278.61653,529.44532 277.93945,529.69922 C 277.26236,529.95313 276.40624,530.08008 275.37109,530.08008 L 273.73047,530.08008 L 273.73047,535.5 L 271.79688,535.5 L 271.79688,520.95898 L 275.44922,520.95898 C 276.30859,520.959 277.04101,521.03061 277.64648,521.17383 C 278.25195,521.31707 278.7858,521.54819 279.24805,521.86719 C 279.7884,522.23829 280.21158,522.70867 280.51758,523.27832 C 280.82356,523.84799 280.97655,524.53647 280.97656,525.34375 L 280.97656,525.34375 z M 278.96484,525.39258 C 278.96484,524.89129 278.87857,524.45509 278.70605,524.08398 C 278.53352,523.7129 278.27148,523.41017 277.91992,523.17578 C 277.61392,522.97397 277.25748,522.83074 276.85059,522.74609 C 276.44368,522.66147 275.93749,522.61915 275.33203,522.61914 L 273.73047,522.61914 L 273.73047,528.42969 L 275.04883,528.42969 C 275.83007,528.42969 276.46158,528.36622 276.94336,528.23926 C 277.42512,528.11231 277.82551,527.88608 278.14453,527.56055 C 278.43098,527.26759 278.63931,526.94858 278.76953,526.60352 C 278.89973,526.25847 278.96484,525.85483 278.96484,525.39258 L 278.96484,525.39258 z "
       style="font-size:20px;font-style:normal;font-weight:normal;fill:#d40000;fill-opacity:1;stroke:none;stroke-width:1px;stroke-linecap:butt;stroke-linejoin:miter;stroke-opacity:1;font-family:Tahoma"
       id="bp_f_5" />
  </g>
</svg>
