<?xml version="1.0" encoding="UTF-8" standalone="no"?>
<!-- Generator: Adobe Illustrator 12.0.1, SVG Export Plug-In . SVG Version: 6.00 Build 51448)  -->
<svg
   xmlns:dc="http://purl.org/dc/elements/1.1/"
   xmlns:cc="http://web.resource.org/cc/"
   xmlns:rdf="http://www.w3.org/1999/02/22-rdf-syntax-ns#"
   xmlns:svg="http://www.w3.org/2000/svg"
   xmlns="http://www.w3.org/2000/svg"
   xmlns:sodipodi="http://sodipodi.sourceforge.net/DTD/sodipodi-0.dtd"
   xmlns:inkscape="http://www.inkscape.org/namespaces/inkscape"
   version="1.1"
   id="Layer_1"
   width="92.803"
   height="85.888"
   viewBox="0 0 92.803 85.888"
   style="overflow:visible;enable-background:new 0 0 92.803 85.888;"
   xml:space="preserve"
   sodipodi:version="0.32"
   inkscape:version="0.45.1"
   sodipodi:docname="Hydrazin.svg"
   inkscape:output_extension="org.inkscape.output.svg.inkscape"
   sodipodi:docbase="C:\"><metadata
   id="metadata38"><rdf:RDF><cc:Work
       rdf:about=""><dc:format>image/svg+xml</dc:format><dc:type
         rdf:resource="http://purl.org/dc/dcmitype/StillImage" /></cc:Work></rdf:RDF></metadata><defs
   id="defs36" /><sodipodi:namedview
   inkscape:window-height="579"
   inkscape:window-width="801"
   inkscape:pageshadow="2"
   inkscape:pageopacity="0.0"
   guidetolerance="10.0"
   gridtolerance="10.0"
   objecttolerance="10.0"
   borderopacity="1.0"
   bordercolor="#666666"
   pagecolor="#ffffff"
   id="base"
   inkscape:zoom="4.4010805"
   inkscape:cx="46.401501"
   inkscape:cy="42.944"
   inkscape:window-x="110"
   inkscape:window-y="110"
   inkscape:current-layer="Layer_1" />
<g
   id="g3"
   transform="matrix(0.95,0,0,0.95,2.320075,2.1472)">
	<path
   style="fill:#231f20"
   d="M 18.741,51.538 L 18.741,34.351 L 21.081,34.351 L 30.085,47.84 L 30.085,34.351 L 32.273,34.351 L 32.273,51.539 L 29.933,51.539 L 20.929,38.05 L 20.929,51.539 L 18.741,51.539 L 18.741,51.538 z "
   id="path5" />
	<path
   style="fill:#231f20"
   d="M 59.929,51.538 L 59.929,34.351 L 62.268,34.351 L 71.272,47.84 L 71.272,34.351 L 73.46,34.351 L 73.46,51.539 L 71.121,51.539 L 62.116,38.05 L 62.116,51.539 L 59.929,51.539 L 59.929,51.538 z "
   id="path7" />
</g>
<path
   style="fill:#231f20"
   d="M 36.152424,41.323299 L 56.577424,41.323299 L 56.577424,42.938299 L 36.152424,42.938299 L 36.152424,41.323299 z "
   id="rect9" />
<g
   id="g11"
   transform="matrix(0.95,0,0,0.95,2.320075,2.1472)">
	<path
   style="fill:#231f20"
   d="M 79.35,17.188 L 79.35,0 L 81.631,0 L 81.631,7.063 L 90.522,7.063 L 90.522,0 L 92.803,0 L 92.803,17.188 L 90.522,17.188 L 90.522,9.094 L 81.631,9.094 L 81.631,17.188 L 79.35,17.188 z "
   id="path13" />
</g>
<path
   style="fill:#231f20"
   d="M 76.811475,20.4708 L 78.189925,21.2783 L 71.823975,32.3458 L 70.398975,31.5383 L 76.811475,20.4708 z "
   id="polygon15" />
<g
   id="g17"
   transform="matrix(0.95,0,0,0.95,2.320075,2.1472)">
	<path
   style="fill:#231f20"
   d="M 0,85.888 L 0,68.7 L 2.281,68.7 L 2.281,75.763 L 11.172,75.763 L 11.172,68.7 L 13.453,68.7 L 13.453,85.888 L 11.172,85.888 L 11.172,77.794 L 2.281,77.794 L 2.281,85.888 L 0,85.888 z "
   id="path19" />
</g>
<path
   style="fill:#231f20"
   d="M 15.252425,64.9783 L 13.874925,64.16985 L 20.239925,53.1508 L 21.617425,53.95735 L 15.252425,64.9783 z "
   id="polygon21" />
<g
   id="g23"
   transform="matrix(0.95,0,0,0.95,2.320075,2.1472)">
	<path
   style="fill:#231f20"
   d="M 0,17.188 L 0,0 L 2.281,0 L 2.281,7.063 L 11.172,7.063 L 11.172,0 L 13.453,0 L 13.453,17.188 L 11.172,17.188 L 11.172,9.094 L 2.281,9.094 L 2.281,17.188 L 0,17.188 z "
   id="path25" />
</g>
<path
   style="fill:#231f20"
   d="M 14.587425,21.3258 L 15.964925,20.5183 L 22.329925,31.5383 L 20.952425,32.3458 L 14.587425,21.3258 z "
   id="polygon27" />
<g
   id="g29"
   transform="matrix(0.95,0,0,0.95,2.320075,2.1472)">
	<path
   style="fill:#231f20"
   d="M 79.35,85.888 L 79.35,68.7 L 81.631,68.7 L 81.631,75.763 L 90.522,75.763 L 90.522,68.7 L 92.803,68.7 L 92.803,85.888 L 90.522,85.888 L 90.522,77.794 L 81.631,77.794 L 81.631,85.888 L 79.35,85.888 z "
   id="path31" />
</g>
<path
   style="fill:#231f20"
   d="M 78.902425,64.16985 L 77.477425,64.9783 L 71.111475,53.95735 L 72.489925,53.1508 L 78.902425,64.16985 z "
   id="polygon33" />
</svg>