<?xml version="1.0" encoding="UTF-8"?>
<svg width="286" height="67.1" version="1.1" viewBox="0 0 85.799 20.13" xmlns="http://www.w3.org/2000/svg">
<path d="m20.475 6.724c0.605 0 0.842 0.021 1.119 0.164 0.359 0.185 0.605 0.605 0.605 1.108s-0.246 0.924-0.605 1.108c-0.277 0.144-0.513 0.164-1.119 0.164h-4.146v4.084c0 0.667-0.021 0.903-0.195 1.252-0.216 0.399-0.677 0.677-1.242 0.677-0.564 0-1.026-0.278-1.242-0.677-0.174-0.349-0.194-0.585-0.194-1.252v-11.019c0-0.422 0-0.944 0.4-1.345 0.4-0.4 0.923-0.4 1.345-0.4h6.27c0.605 0 0.842 0.021 1.119 0.164 0.359 0.185 0.605 0.605 0.605 1.108 0 0.502-0.246 0.923-0.605 1.107-0.277 0.144-0.513 0.165-1.119 0.165h-5.142v3.592zm-12.694 4.547c0.195-0.421 0.421-0.791 0.708-1.016 0.185-0.144 0.493-0.246 0.821-0.246 0.37 0 0.719 0.113 0.996 0.39 0.267 0.267 0.38 0.585 0.38 1.088 0 0.575-0.298 1.611-1.252 2.524-0.914 0.893-2.001 1.314-3.746 1.314-1.632 0-2.904-0.544-3.89-1.54-1.446-1.447-1.498-3.099-1.498-5.891s0.052-4.444 1.498-5.89c0.985-0.996 2.258-1.54 3.89-1.54 1.745 0 2.833 0.42 3.746 1.313 0.954 0.914 1.252 1.95 1.252 2.525 0 0.503-0.113 0.821-0.38 1.088-0.277 0.277-0.626 0.39-0.996 0.39-0.328 0-0.636-0.103-0.821-0.246-0.287-0.226-0.513-0.595-0.708-1.016-0.462-1.026-1.149-1.509-2.155-1.509-0.749 0-1.313 0.308-1.734 0.78-0.605 0.698-0.718 1.498-0.718 4.105 0 2.606 0.113 3.407 0.718 4.105 0.421 0.472 0.985 0.78 1.734 0.78 1.005 0 1.693-0.482 2.155-1.508" fill="#f5821f"/>
<path d="m78.674 10.532c0 2.206 1.046 3.499 2.997 3.499 0.78 0 1.56-0.215 2.166-0.729 0.318-0.267 0.472-0.359 0.698-0.359 0.318 0 0.636 0.308 0.636 0.646 0 0.452-0.646 0.902-1.047 1.149-0.605 0.359-1.478 0.585-2.514 0.585-2.679 0-4.423-1.601-4.423-5.172 0-3.335 1.621-5.172 4.166-5.172 2.566 0 4.125 1.868 4.146 4.68 0 0.205-0.01 0.482-0.205 0.677s-0.421 0.195-0.657 0.195h-5.963zm5.357-1.129c-0.031-0.719-0.092-1.088-0.318-1.642-0.379-0.924-1.262-1.509-2.36-1.509s-1.991 0.595-2.36 1.509c-0.226 0.554-0.287 0.923-0.318 1.642zm-9.883 4.874c0 0.37-0.031 0.513-0.133 0.688-0.113 0.185-0.349 0.318-0.616 0.318s-0.513-0.133-0.616-0.318c-0.103-0.174-0.134-0.318-0.134-0.688v-5.274c0-1.796-0.934-2.688-2.473-2.688s-2.524 0.913-2.524 2.688v5.274c0 0.37-0.031 0.513-0.133 0.688-0.113 0.185-0.35 0.318-0.616 0.318-0.267 0-0.503-0.133-0.617-0.318-0.103-0.174-0.133-0.318-0.133-0.688v-8.251c0-0.358 0.021-0.502 0.133-0.687 0.113-0.185 0.339-0.318 0.617-0.318 0.276 0 0.503 0.133 0.616 0.318s0.133 0.329 0.133 0.687v0.185c0.729-0.81 1.714-1.23 2.833-1.23 1.098 0 1.991 0.328 2.617 0.944 0.718 0.698 1.047 1.652 1.047 2.822v5.53zm-12.509-13.977c0.564 0 1.016 0.452 1.016 1.016s-0.451 1.016-1.016 1.016-1.016-0.452-1.016-1.016 0.451-1.016 1.016-1.016m0.749 13.977c0 0.359-0.021 0.503-0.133 0.688-0.113 0.185-0.339 0.318-0.616 0.318s-0.503-0.133-0.616-0.318-0.134-0.328-0.134-0.688v-8.251c0-0.358 0.021-0.502 0.134-0.687s0.338-0.318 0.616-0.318c0.277 0 0.503 0.133 0.616 0.318s0.133 0.329 0.133 0.687zm-6.764 1.17v-1.611c-0.801 1.057-1.765 1.345-2.853 1.345-1.037 0-1.929-0.37-2.463-0.903-1.006-1.006-1.232-2.565-1.232-4.207s0.226-3.202 1.232-4.208c0.534-0.534 1.447-0.883 2.483-0.883 1.108 0 2.011 0.247 2.833 1.314v-0.267c0-0.359 0.021-0.503 0.133-0.688 0.113-0.185 0.339-0.318 0.616-0.318 0.276 0 0.503 0.133 0.616 0.318s0.133 0.328 0.133 0.688v9.472c0 2.504-1.59 4.331-4.269 4.331-0.955 0-1.601-0.144-2.248-0.493-0.369-0.206-1.067-0.657-1.067-1.108 0-0.421 0.349-0.677 0.626-0.677 0.206 0 0.38 0.092 0.75 0.379 0.564 0.452 1.18 0.605 1.909 0.605 1.949 0 2.801-1.375 2.801-3.089m-2.524-9.133c-2.196 0-2.525 1.888-2.525 3.766s0.329 3.746 2.525 3.746 2.504-1.878 2.504-3.755c0-1.869-0.308-3.757-2.504-3.757m-7.082 7.963c0 0.37-0.031 0.513-0.133 0.688-0.113 0.185-0.349 0.318-0.616 0.318s-0.513-0.133-0.616-0.318c-0.103-0.174-0.134-0.318-0.134-0.688v-5.274c0-1.796-0.934-2.688-2.473-2.688s-2.524 0.913-2.524 2.688v5.274c0 0.37-0.031 0.513-0.133 0.688-0.113 0.185-0.35 0.318-0.616 0.318-0.267 0-0.503-0.133-0.617-0.318-0.103-0.174-0.133-0.318-0.133-0.688v-8.251c0-0.358 0.021-0.502 0.133-0.687 0.113-0.185 0.339-0.318 0.617-0.318 0.276 0 0.503 0.133 0.616 0.318s0.133 0.329 0.133 0.687v0.185c0.729-0.81 1.714-1.23 2.833-1.23 1.098 0 1.991 0.328 2.617 0.944 0.718 0.698 1.047 1.652 1.047 2.822v5.53zm-11.873-13.689c0.39 0 0.523 0.031 0.677 0.123 0.185 0.123 0.298 0.329 0.298 0.575 0 0.247-0.113 0.452-0.298 0.575-0.154 0.093-0.287 0.123-0.677 0.123h-6.599v5.151h5.48c0.39 0 0.523 0.031 0.677 0.124 0.185 0.122 0.298 0.328 0.298 0.574 0 0.247-0.113 0.453-0.298 0.575-0.154 0.093-0.287 0.123-0.677 0.123h-5.48v5.275h6.599c0.39 0 0.523 0.031 0.677 0.123 0.185 0.123 0.298 0.328 0.298 0.575 0 0.246-0.113 0.452-0.298 0.575-0.154 0.092-0.287 0.123-0.677 0.123h-7.225c-0.246 0-0.523 0-0.739-0.215-0.215-0.216-0.215-0.493-0.215-0.739v-12.706c0-0.247 0-0.523 0.215-0.739 0.216-0.216 0.494-0.216 0.739-0.216h7.225z" fill="#226282"/>
</svg>
